<svg xmlns="http://www.w3.org/2000/svg" xml:space="preserve" viewBox="0 0 80 69">
  <title>One-Logo</title>
  <path fill="#fff" d="M10.2 46.5c-5.8 0-9.7-2.6-9.7-9.6 0-6.6 4.6-10.8 10.6-10.8 6.4 0 9.6 3.6 9.6 9.7 0 6.5-4.7 10.7-10.5 10.7m.5-14.3c-1.4 0-2.8 1.1-2.8 3.8 0 3 .8 4.2 2.7 4.2 1.8 0 2.8-1.6 2.8-4.1 0-2.6-.7-3.9-2.7-3.9M33.4 46V33.8c0-1-.3-1.6-1.1-1.6-1.5 0-3.1 2.2-3.1 4.4V46h-7.1V26.6h6.6c0 .5-.1 1.7-.2 2.6h.1c1.2-1.7 3.2-3.1 6.2-3.1 4.3 0 5.7 2.8 5.7 6.2V46zM60.2 38.5h-11c.1 1.4 1.4 2.4 4.2 2.4 1.8 0 3.8-.3 5.7-1.2l.6 5.3c-2.4.9-5.1 1.4-7.5 1.4-6.5 0-10.2-3.1-10.2-9.9 0-6 3.4-10.5 9.7-10.5 6 0 8.7 4.1 8.7 9.4 0 1.1-.1 2.1-.2 3.1m-8.7-7.3c-1.4 0-2.3 1.1-2.4 2.7h4.4c.1-1.8-.7-2.7-2-2.7"></path>
  <path fill="#fff" d="M71.3 22.5c-4.5 0-8.2 3.6-8.2 8.2 0 4.5 3.6 8.2 8.2 8.2 4.5 0 8.2-3.6 8.2-8.2s-3.7-8.2-8.2-8.2m0 14.8a6.7 6.7 0 1 1 0-13.4 6.7 6.7 0 0 1 0 13.4"></path>
  <path fill="#fff" d="M74 33.1v-6.7l-6.7 2.4v1.7l2.2-.8v5z"></path>
</svg>