<svg xmlns="http://www.w3.org/2000/svg" xml:space="preserve" viewBox="0 0 82 69">
  <title>Rundfunk Berlin-Brandenburg-Logo</title>
  <path fill="#fff" d="M66.1 21.7 60 50.5H.6V21.7zM20 33.1c-5.7.1-9.9.9-12.8 2.3V44h2.4v-7c2.6-.9 6.1-1.4 10.4-1.5zm5-5h-2.4v15.6c2.8.3 5.1.5 7.1.5 3.6 0 6.1-.4 7.5-1.3.3-.8.5-2.2.5-4.3 0-2-.2-3.3-.6-4-2.2-1-4.9-1.6-8.2-1.6q-1.95 0-3.9.3zm0 7.8c1.4-.2 2.7-.3 4-.3 2.3 0 4.3.3 6.1.9.1.9.2 1.7.2 2.4 0 .6-.1 1.4-.2 2.4-1.3.3-3.1.6-5.4.6-1.2 0-2.8-.1-4.7-.3zm17.6-7.8h-2.4v15.6c2.8.3 5.1.5 7.1.5 3.6 0 6-.4 7.5-1.3.3-.8.5-2.2.5-4.3 0-2-.2-3.3-.6-4-2.2-1-4.9-1.6-8.2-1.6q-1.95 0-3.9.3zm0 7.8c1.4-.2 2.8-.3 4-.3 2.2 0 4.3.3 6.1.9.1.9.2 1.7.2 2.4 0 .6-.1 1.4-.2 2.4-1.2.3-3.1.6-5.4.6-1.2 0-2.8-.1-4.7-.3z"></path>
  <path fill="#fff" d="M74.7 18.5c-3.6 0-6.5 2.9-6.5 6.5s2.9 6.5 6.5 6.5c3.7 0 6.5-2.9 6.5-6.5 0-3.5-2.9-6.5-6.5-6.5m0 11.9c-3 0-5.3-2.4-5.3-5.3s2.4-5.3 5.3-5.3S80 22.1 80 25s-2.3 5.4-5.3 5.4"></path>
  <path fill="#fff" d="M76.8 27v-5.3l-5.4 1.9v1.3l1.8-.6v4z"></path>
</svg>