<svg xmlns="http://www.w3.org/2000/svg" xml:space="preserve" viewBox="0 0 51 68">
  <title>Saarländischer Rundfunk-Logo</title>
  <path fill="#fff" d="m.1 48.8 35 4.2 4-31.5L7.4 15zm20-20.8s2.1-.1 4.7-.1c3.5 0 5.6 1.3 5.6 4.3 0 2.2-1.2 3.5-3 4 0 0 .6.8 1.1 1.6l2.9 4.6h-4.1l-3.2-5.5h-.6v5.5h-3.4zm-6-.2q1.5 0 3 .3l-.4 2.9c-.9-.3-1.9-.5-2.8-.5-1.2 0-1.9.4-1.9 1.3 0 2.3 6.1 1.6 6.1 6.3 0 2.6-2.1 4.6-5.7 4.6-1.3 0-2.7-.2-3.8-.5L9 39c1 .4 2.4.7 3.5.7s1.9-.4 1.9-1.4c0-2.3-6.1-1.6-6.1-6.3.2-2.4 2.3-4.2 5.8-4.2"></path>
  <path fill="#fff" d="M26.8 32.5c0-1.1-.7-1.9-2.3-1.9h-1v3.7h1c1.4.2 2.3-.5 2.3-1.8M45.5 25.6c-2.8 0-5.1 2.2-5.1 5s2.3 5 5.1 5 5.1-2.2 5.1-5-2.3-5-5.1-5m0 9c-2.3 0-4.2-1.8-4.2-4.1s1.9-4.1 4.2-4.1 4.2 1.8 4.2 4.1-1.9 4.1-4.2 4.1"></path>
  <path fill="#fff" d="m42.9 30.4 1.4-.5V33l2.8-1v-4.1l-4.2 1.5z"></path>
</svg>