<svg xmlns="http://www.w3.org/2000/svg" xml:space="preserve" x="0" y="0" viewBox="0 0 110 69">
  <title>Südwestrundfunk-Logo</title>
  <g fill="#fff">
    <path d="M103 19.4c-3.7 0-6.8 3-6.8 6.8 0 3.7 3 6.8 6.8 6.8s6.8-3 6.8-6.8-3-6.8-6.8-6.8m0 12.2c-3.1 0-5.5-2.4-5.5-5.5s2.4-5.5 5.5-5.5 5.5 2.4 5.5 5.5-2.4 5.5-5.5 5.5"></path>
    <path d="M105.2 28.1v-5.5l-5.5 2V26l1.8-.7v4.1z"></path>
    <path d="M69.5 21.3v9.1l5 5-5 4.9v9.2l14-14.1zM38.7 22.8l-2.5 15.7-2.5-15.7h-5.9l-2.5 15.7-2.5-15.7h-5.9l4.5 25.3H28l2.9-16.3 2.9 16.3h6.6l4.5-25.3zM65.3 48.1h-7.1l-6-9.9h-.3v9.9H46V22.8c2.2-.2 4.9-.2 7.9-.2 5.9 0 9.5 2.2 9.5 7.5 0 3.4-2.1 6.2-5.5 7 .6 1 1.4 1.9 2 2.9zm-7.9-17.6c0-2-1.2-3.2-3.9-3.2-.6 0-1.3 0-1.6.1V34c.3 0 .9.1 1.4.1 2.5-.1 4.1-1.4 4.1-3.6M6.6 48.5c-1.8 0-3.6-.2-5.2-.5l.3-5.6c1.4.5 3.6 1.1 5.4 1.1 2.2 0 3.7-.9 3.7-2.7 0-4.3-9.9-2.2-10.1-10.5-.1-4.8 3.8-7.9 10.1-7.9 1.4 0 3.1.2 4.6.5V28c-1.5-.6-3.4-1-4.8-1C8.2 27 7 28.1 7 29.4c0 4 10.1 2.4 10.1 10.4-.1 5-4.1 8.7-10.5 8.7"></path>
    <path d="M82 21.3v9.1l5 5-5 4.9v9.2l14-14.1z"></path>
  </g>
</svg>