<svg xmlns="http://www.w3.org/2000/svg" width="786" height="432" viewBox="0 0 786 432"><rect width="100%" height="100%" fill="#000000"/><path fill="#FFFFFF" d="M201.43 103.495v32.72h3.41q2.05 0 3.4-.57 1.35-.56 2.32-1.81l21.55-27.27q1.35-1.72 2.83-2.4 1.49-.67 3.75-.67h12.53l-26.3 32.45q-2.32 2.97-4.8 4.21 1.78.65 3.21 1.81t2.73 3.05l27.11 36.56h-12.8q-2.59 0-3.86-.73t-2.14-2.13l-22.08-28.84q-1.03-1.46-2.38-2.05t-3.89-.59h-4.59v34.34h-14.52v-78.08zm67.94 44.01h25.16q0-2.6-.73-4.89-.73-2.3-2.19-4.02-1.45-1.73-3.7-2.73-2.24-1-5.21-1-5.77 0-9.1 3.29-3.32 3.3-4.23 9.35m34.02 8.04H269.1q.32 4.27 1.51 7.37 1.19 3.11 3.13 5.13 1.94 2.03 4.62 3.03 2.67 1 5.91 1t5.59-.76 4.1-1.67q1.76-.92 3.08-1.68 1.32-.75 2.57-.75 1.67 0 2.48 1.24l3.83 4.86q-2.21 2.59-4.96 4.34-2.76 1.76-5.76 2.81-2.99 1.06-6.1 1.49-3.1.43-6.02.43-5.78 0-10.74-1.92-4.97-1.91-8.64-5.67-3.68-3.75-5.78-9.29-2.11-5.53-2.11-12.82 0-5.67 1.84-10.66 1.83-5 5.26-8.7t8.37-5.86 11.15-2.16q5.24 0 9.67 1.68 4.43 1.67 7.61 4.88 3.19 3.22 5 7.89t1.81 10.66q0 3.03-.65 4.08t-2.48 1.05m13.55-29.37h13.39v55.4h-13.39zm15.23-16.15q0 1.73-.7 3.24-.71 1.51-1.87 2.65-1.16 1.13-2.72 1.81-1.57.67-3.35.67-1.73 0-3.27-.67-1.54-.68-2.67-1.81-1.14-1.14-1.81-2.65-.68-1.51-.68-3.24 0-1.78.68-3.35.67-1.56 1.81-2.7 1.13-1.13 2.67-1.81 1.54-.67 3.27-.67 1.78 0 3.35.67 1.56.68 2.72 1.81 1.16 1.14 1.87 2.7.7 1.57.7 3.35m23.33 18.58.91 4.37q1.68-1.67 3.54-3.1 1.86-1.44 3.94-2.43 2.08-1 4.46-1.57 2.37-.57 5.18-.57 4.54 0 8.05 1.54t5.86 4.32 3.56 6.64q1.22 3.86 1.22 8.51v35.26h-13.34v-35.26q0-5.08-2.32-7.86-2.33-2.78-7.08-2.78-3.45 0-6.48 1.57-3.02 1.56-5.72 4.26v40.07h-13.34v-55.4h8.15q2.6 0 3.41 2.43m92.23 41.63h14.69q4.05 0 6.8-.97t4.4-2.59 2.38-3.78.73-4.59q0-2.54-.81-4.57-.81-2.02-2.54-3.45t-4.46-2.19q-2.72-.76-6.56-.76h-14.63zm12.36-55.51h-12.36v22.57h11.55q7.46 0 11.26-2.7 3.81-2.7 3.81-8.59 0-6.1-3.46-8.69-3.45-2.59-10.8-2.59m-26.89-11.23h26.89q7.67 0 13.13 1.45 5.45 1.46 8.93 4.16 3.49 2.7 5.11 6.54 1.62 3.83 1.62 8.64 0 2.75-.81 5.26t-2.52 4.7q-1.7 2.19-4.32 3.97-2.61 1.78-6.23 3.02 16.09 3.62 16.09 17.39 0 4.97-1.89 9.18t-5.51 7.26-8.91 4.78-12.09 1.73H433.2zm69.45 22.68h13.39v55.4h-13.39zm15.22-16.15q0 1.73-.7 3.24t-1.86 2.65q-1.16 1.13-2.73 1.81-1.56.67-3.35.67-1.72 0-3.26-.67-1.54-.68-2.68-1.81-1.13-1.14-1.81-2.65-.67-1.51-.67-3.24 0-1.78.67-3.35.68-1.56 1.81-2.7 1.14-1.13 2.68-1.81 1.54-.67 3.26-.67 1.79 0 3.35.67 1.57.68 2.73 1.81 1.16 1.14 1.86 2.7.7 1.57.7 3.35m11.94-8.69h13.34v80.24h-13.34zm61.45 63.82v-24.84q-2.27-2.75-4.94-3.88-2.67-1.14-5.75-1.14-3.03 0-5.46 1.14-2.43 1.13-4.15 3.43-1.73 2.29-2.65 5.83-.92 3.53-.92 8.34 0 4.86.78 8.24.79 3.37 2.25 5.5 1.45 2.14 3.56 3.08 2.11.95 4.7.95 4.16 0 7.07-1.73 2.92-1.73 5.51-4.92m0-63.82h13.34v80.24h-8.16q-2.64 0-3.34-2.43l-1.14-5.35q-3.35 3.84-7.69 6.21-4.35 2.38-10.13 2.38-4.53 0-8.31-1.89t-6.51-5.48-4.21-8.88q-1.49-5.3-1.49-12.1 0-6.16 1.68-11.45 1.67-5.29 4.8-9.18t7.51-6.07q4.37-2.19 9.83-2.19 4.64 0 7.93 1.46 3.3 1.46 5.89 3.94zm-397.28 180.79q2.49 0 4.32-.68 1.84-.67 3.05-1.86 1.22-1.19 1.84-2.86.62-1.68.62-3.67 0-4.11-2.46-6.51-2.45-2.4-7.37-2.4-4.91 0-7.37 2.4t-2.46 6.51q0 1.94.62 3.61.63 1.68 1.84 2.89 1.22 1.22 3.08 1.89 1.86.68 4.29.68m15.07 31.53q0-1.62-.97-2.64-.98-1.03-2.65-1.6-1.67-.56-3.92-.83-2.24-.27-4.75-.41-2.51-.13-5.18-.24t-5.21-.43q-2.22 1.24-3.59 2.91-1.38 1.68-1.38 3.89 0 1.46.73 2.73t2.32 2.19q1.59.91 4.13 1.43 2.54.51 6.21.51 3.73 0 6.43-.57 2.7-.56 4.45-1.56 1.76-1 2.57-2.38t.81-3m-2.65-55.99h15.93v4.96q0 2.38-2.86 2.92l-4.97.92q1.14 2.86 1.14 6.26 0 4.11-1.65 7.43t-4.56 5.64q-2.92 2.32-6.89 3.59t-8.56 1.27q-1.62 0-3.13-.16t-2.97-.43q-2.59 1.56-2.59 3.51 0 1.67 1.54 2.45 1.54.79 4.07 1.11 2.54.32 5.78.4 3.24.09 6.64.36 3.41.27 6.65.94 3.24.68 5.77 2.13 2.54 1.46 4.08 3.97t1.54 6.46q0 3.67-1.81 7.12-1.81 3.46-5.24 6.16t-8.42 4.35q-5 1.64-11.37 1.64-6.26 0-10.91-1.21-4.64-1.22-7.72-3.24-3.08-2.03-4.59-4.67-1.51-2.65-1.51-5.51 0-3.89 2.35-6.51t6.45-4.18q-2.21-1.14-3.51-3.03-1.29-1.89-1.29-4.96 0-1.25.45-2.57.46-1.32 1.35-2.62.9-1.29 2.25-2.46 1.35-1.16 3.18-2.07-4.21-2.27-6.61-6.05-2.41-3.78-2.41-8.86 0-4.1 1.65-7.42t4.59-5.67 6.97-3.59q4.02-1.25 8.77-1.25 3.57 0 6.7.73t5.72 2.14m34.89 19.44h25.16q0-2.6-.73-4.89-.73-2.3-2.19-4.02-1.45-1.73-3.7-2.73-2.24-1-5.21-1-5.77 0-9.1 3.29-3.32 3.3-4.23 9.35m34.02 8.04h-34.29q.32 4.27 1.51 7.37 1.19 3.11 3.13 5.13 1.94 2.03 4.62 3.03 2.67 1 5.91 1t5.59-.76 4.1-1.67q1.76-.92 3.08-1.68 1.32-.75 2.57-.75 1.67 0 2.48 1.24l3.83 4.86q-2.21 2.59-4.96 4.34-2.76 1.76-5.76 2.81-2.99 1.06-6.1 1.49-3.1.43-6.02.43-5.78 0-10.74-1.92-4.97-1.91-8.64-5.67-3.68-3.75-5.78-9.29-2.11-5.53-2.11-12.82 0-5.67 1.84-10.67 1.83-4.99 5.26-8.69t8.37-5.86 11.15-2.16q5.24 0 9.67 1.68 4.43 1.67 7.61 4.88 3.19 3.22 5 7.89t1.81 10.66q0 3.03-.65 4.08t-2.48 1.05m30.34 26.03h-13.33v-45.36l-4.81-.76q-1.57-.32-2.51-1.1-.95-.79-.95-2.24v-5.46h8.27v-4.1q0-4.75 1.43-8.53t4.1-6.43 6.51-4.05q3.83-1.4 8.64-1.4 3.83 0 7.13 1.02l-.27 6.7q-.06.75-.44 1.21-.37.46-1 .7-.62.25-1.43.33t-1.72.08q-2.38 0-4.24.51-1.87.52-3.16 1.78-1.3 1.27-1.97 3.35-.68 2.08-.68 5.16v3.67h14.42v9.51h-13.99zm55.89-55.4h13.34v55.4h-8.15q-2.65 0-3.35-2.43l-.92-4.43q-3.4 3.46-7.5 5.59-4.11 2.13-9.67 2.13-4.54 0-8.02-1.54-3.48-1.53-5.86-4.34-2.37-2.81-3.59-6.67-1.21-3.86-1.21-8.51v-35.2h13.33v35.2q0 5.08 2.35 7.86t7.05 2.78q3.46 0 6.48-1.54t5.72-4.24zm38.07 2.43.92 4.37q1.68-1.67 3.54-3.11 1.86-1.43 3.94-2.42 2.08-1 4.46-1.57 2.37-.57 5.18-.57 4.54 0 8.05 1.54t5.85 4.32q2.35 2.78 3.57 6.64 1.21 3.86 1.21 8.51v35.26H423v-35.26q0-5.08-2.33-7.86-2.32-2.78-7.07-2.78-3.46 0-6.48 1.57-3.02 1.56-5.72 4.26v40.07h-13.34v-55.4h8.15q2.59 0 3.4 2.43m84.14 36.55v-24.84q-2.27-2.75-4.95-3.88-2.67-1.14-5.75-1.14-3.02 0-5.45 1.14-2.43 1.13-4.16 3.42-1.73 2.3-2.64 5.84-.92 3.53-.92 8.34 0 4.86.78 8.23.78 3.38 2.24 5.51 1.46 2.14 3.57 3.08 2.1.95 4.69.95 4.16 0 7.08-1.73 2.91-1.73 5.51-4.92m0-63.82h13.33v80.24h-8.15q-2.65 0-3.35-2.43l-1.13-5.35q-3.35 3.84-7.7 6.21-4.34 2.38-10.12 2.38-4.54 0-8.32-1.89t-6.51-5.48q-2.72-3.59-4.21-8.88-1.48-5.3-1.48-12.1 0-6.16 1.67-11.45 1.68-5.29 4.81-9.18t7.5-6.07q4.38-2.19 9.83-2.19 4.65 0 7.94 1.46t5.89 3.94zm37.04 46.17h25.16q0-2.6-.73-4.89-.72-2.3-2.18-4.02-1.46-1.73-3.7-2.73t-5.21-1q-5.78 0-9.1 3.29-3.32 3.3-4.24 9.35m34.02 8.04h-34.29q.32 4.27 1.51 7.37 1.19 3.11 3.13 5.13 1.95 2.03 4.62 3.03t5.91 1 5.59-.76 4.11-1.67q1.75-.92 3.07-1.68 1.33-.75 2.57-.75 1.67 0 2.48 1.24l3.84 4.86q-2.22 2.59-4.97 4.34-2.75 1.76-5.75 2.81-3 1.06-6.1 1.49-3.11.43-6.02.43-5.78 0-10.75-1.92-4.97-1.91-8.64-5.67-3.67-3.75-5.78-9.29-2.1-5.53-2.1-12.82 0-5.67 1.83-10.67 1.84-4.99 5.27-8.69t8.37-5.86 11.15-2.16q5.24 0 9.66 1.68 4.43 1.67 7.62 4.88 3.18 3.22 4.99 7.89t1.81 10.66q0 3.03-.65 4.08-.64 1.05-2.48 1.05m24.68-26.94.92 4.37q1.67-1.67 3.53-3.11 1.87-1.43 3.94-2.42 2.08-1 4.46-1.57t5.18-.57q4.54 0 8.05 1.54t5.86 4.32 3.56 6.64q1.22 3.86 1.22 8.51v35.26h-13.34v-35.26q0-5.08-2.32-7.86t-7.08-2.78q-3.45 0-6.48 1.57-3.02 1.56-5.72 4.26v40.07h-13.34v-55.4h8.16q2.59 0 3.4 2.43"/></svg>