<svg xmlns="http://www.w3.org/2000/svg" width="786" height="432" viewBox="0 0 786 432"><rect width="100%" height="100%" fill="#3B4252"/><path fill="#FFFFFF" d="M202.92 170.235h14.69q4.05 0 6.8-.97 2.76-.97 4.4-2.59 1.65-1.62 2.38-3.78t.73-4.59q0-2.54-.81-4.57-.81-2.02-2.54-3.45t-4.45-2.19q-2.73-.76-6.56-.76h-14.64zm12.37-55.51h-12.37v22.57h11.56q7.45 0 11.26-2.7 3.8-2.7 3.8-8.59 0-6.1-3.45-8.69-3.46-2.59-10.8-2.59m-26.9-11.23h26.9q7.66 0 13.12 1.45 5.45 1.46 8.94 4.16 3.48 2.7 5.1 6.54 1.62 3.83 1.62 8.64 0 2.75-.81 5.26t-2.51 4.7-4.32 3.97-6.24 3.02q16.09 3.62 16.09 17.39 0 4.97-1.89 9.18t-5.51 7.26q-3.61 3.05-8.91 4.78-5.29 1.73-12.09 1.73h-29.49zm69.45 22.68h13.39v55.4h-13.39zm15.23-16.15q0 1.73-.71 3.24-.7 1.51-1.86 2.65-1.16 1.13-2.73 1.81-1.56.67-3.34.67-1.73 0-3.27-.67-1.54-.68-2.67-1.81-1.14-1.14-1.81-2.65-.68-1.51-.68-3.24 0-1.78.68-3.35.67-1.56 1.81-2.7 1.13-1.13 2.67-1.81 1.54-.67 3.27-.67 1.78 0 3.34.67 1.57.68 2.73 1.81 1.16 1.14 1.86 2.7.71 1.57.71 3.35m11.93-8.69h13.34v80.24H285zm61.45 63.82v-24.84q-2.27-2.75-4.94-3.88-2.67-1.14-5.75-1.14-3.02 0-5.45 1.14-2.43 1.13-4.16 3.43-1.73 2.29-2.65 5.83-.92 3.53-.92 8.34 0 4.86.79 8.24.78 3.37 2.24 5.5 1.46 2.14 3.56 3.08 2.11.95 4.7.95 4.16 0 7.08-1.73 2.91-1.73 5.5-4.92m0-63.82h13.34v80.24h-8.15q-2.65 0-3.35-2.43l-1.13-5.35q-3.35 3.84-7.7 6.21-4.35 2.38-10.13 2.38-4.53 0-8.31-1.89t-6.51-5.48-4.21-8.88q-1.49-5.3-1.49-12.1 0-6.16 1.68-11.45 1.67-5.29 4.81-9.18 3.13-3.89 7.5-6.07 4.37-2.19 9.83-2.19 4.64 0 7.94 1.46 3.29 1.46 5.88 3.94zm121.72 24.84h10.15l-17.6 55.4h-10.7q-1.83 0-2.53-2.38l-9.94-32.02q-.49-1.62-.89-3.21-.41-1.59-.68-3.21-.32 1.62-.72 3.26-.41 1.65-.9 3.27l-10.09 31.91q-.65 2.38-2.87 2.38h-10.26l-17.55-55.4h10.64q1.46 0 2.49.7 1.02.7 1.35 1.78l7.93 29.59q.6 2.43 1.06 4.75.46 2.33.78 4.65.59-2.32 1.27-4.65.67-2.32 1.43-4.75l9.18-29.7q.32-1.08 1.27-1.78.94-.7 2.29-.7h5.89q1.4 0 2.4.7t1.33 1.78l8.91 29.7q.7 2.43 1.32 4.78t1.21 4.67q.71-4.59 2-9.45l8.16-29.59q.38-1.08 1.35-1.78t2.32-.7m18.14 0h13.4v55.4h-13.4zm15.23-16.15q0 1.73-.7 3.24t-1.86 2.65q-1.17 1.13-2.73 1.81-1.57.67-3.35.67-1.73 0-3.27-.67-1.54-.68-2.67-1.81-1.13-1.14-1.81-2.65-.67-1.51-.67-3.24 0-1.78.67-3.35.68-1.56 1.81-2.7 1.13-1.13 2.67-1.81 1.54-.67 3.27-.67 1.78 0 3.35.67 1.56.68 2.73 1.81 1.16 1.14 1.86 2.7.7 1.57.7 3.35m23.55 19.49.81 6.27q2.59-4.97 6.15-7.8 3.57-2.84 8.43-2.84 3.83 0 6.15 1.67l-.86 9.99q-.27.98-.79 1.38-.51.41-1.37.41-.81 0-2.41-.27-1.59-.27-3.1-.27-2.21 0-3.94.64-1.73.65-3.11 1.87-1.37 1.21-2.43 2.94-1.05 1.73-1.97 3.94v34.13h-13.34v-55.4h7.83q2.05 0 2.86.73.81.72 1.09 2.61m63.28 35.64v-24.84q-2.26-2.75-4.94-3.88-2.67-1.14-5.75-1.14-3.02 0-5.45 1.14-2.43 1.13-4.16 3.43-1.73 2.29-2.65 5.83-.91 3.53-.91 8.34 0 4.86.78 8.24.78 3.37 2.24 5.5 1.46 2.14 3.56 3.08 2.11.95 4.7.95 4.16 0 7.08-1.73 2.91-1.73 5.5-4.92m0-63.82h13.34v80.24h-8.15q-2.65 0-3.35-2.43l-1.13-5.35q-3.35 3.84-7.7 6.21-4.35 2.38-10.12 2.38-4.54 0-8.32-1.89t-6.51-5.48q-2.72-3.59-4.21-8.88-1.48-5.3-1.48-12.1 0-6.16 1.67-11.45t4.81-9.18q3.13-3.89 7.5-6.07 4.38-2.19 9.83-2.19 4.64 0 7.94 1.46 3.29 1.46 5.88 3.94zm-394.12 180.79q2.49 0 4.32-.68 1.84-.67 3.06-1.86 1.21-1.19 1.83-2.86.62-1.68.62-3.67 0-4.11-2.45-6.51-2.46-2.4-7.38-2.4-4.91 0-7.37 2.4-2.45 2.4-2.45 6.51 0 1.94.62 3.61.62 1.68 1.83 2.89 1.22 1.22 3.08 1.89 1.86.68 4.29.68m15.07 31.53q0-1.62-.97-2.64-.97-1.03-2.65-1.6-1.67-.56-3.91-.83t-4.75-.41q-2.52-.13-5.19-.24t-5.21-.43q-2.21 1.24-3.59 2.91-1.38 1.68-1.38 3.89 0 1.46.73 2.73t2.32 2.19q1.6.91 4.13 1.43 2.54.51 6.21.51 3.73 0 6.43-.57 2.7-.56 4.46-1.56 1.75-1 2.56-2.38t.81-3m-2.65-55.99h15.93v4.96q0 2.38-2.86 2.92l-4.97.92q1.14 2.86 1.14 6.26 0 4.11-1.65 7.43t-4.56 5.64q-2.92 2.32-6.89 3.59t-8.56 1.27q-1.62 0-3.13-.16t-2.97-.43q-2.59 1.56-2.59 3.51 0 1.67 1.54 2.45 1.54.79 4.08 1.11 2.53.32 5.77.4 3.24.09 6.65.36 3.4.27 6.64.94 3.24.68 5.78 2.13 2.53 1.46 4.07 3.97t1.54 6.46q0 3.67-1.81 7.12-1.81 3.46-5.23 6.16-3.43 2.7-8.43 4.35-4.99 1.64-11.37 1.64-6.26 0-10.9-1.21-4.65-1.22-7.73-3.24-3.07-2.03-4.59-4.67-1.51-2.65-1.51-5.51 0-3.89 2.35-6.51t6.45-4.18q-2.21-1.14-3.51-3.03-1.29-1.89-1.29-4.96 0-1.25.46-2.57t1.35-2.62q.89-1.29 2.24-2.46 1.35-1.16 3.18-2.07-4.21-2.27-6.61-6.05t-2.4-8.86q0-4.1 1.64-7.42 1.65-3.32 4.59-5.67 2.95-2.35 6.97-3.59 4.02-1.25 8.77-1.25 3.57 0 6.7.73t5.72 2.14m34.89 19.44h25.16q0-2.6-.73-4.89-.73-2.3-2.18-4.02-1.46-1.73-3.7-2.73t-5.21-1q-5.78 0-9.1 3.29-3.32 3.3-4.24 9.35m34.02 8.04h-34.29q.32 4.27 1.51 7.37 1.19 3.11 3.13 5.13 1.95 2.03 4.62 3.03t5.91 1 5.59-.76 4.11-1.67q1.75-.92 3.07-1.68 1.33-.75 2.57-.75 1.67 0 2.48 1.24l3.84 4.86q-2.22 2.59-4.97 4.34-2.76 1.76-5.75 2.81-3 1.06-6.1 1.49-3.11.43-6.03.43-5.77 0-10.74-1.92-4.97-1.91-8.64-5.67-3.67-3.75-5.78-9.29-2.11-5.53-2.11-12.82 0-5.67 1.84-10.67 1.84-4.99 5.27-8.69 3.42-3.7 8.37-5.86 4.94-2.16 11.15-2.16 5.23 0 9.66 1.68 4.43 1.67 7.62 4.88 3.18 3.22 4.99 7.89t1.81 10.66q0 3.03-.65 4.08t-2.48 1.05m13.28-54.21h13.34v80.24h-13.34zm55.95 65.93v-9.34q-5.78.27-9.72 1-3.95.73-6.32 1.86-2.38 1.13-3.4 2.65-1.03 1.51-1.03 3.29 0 3.51 2.08 5.02t5.43 1.51q4.1 0 7.1-1.48 2.99-1.49 5.86-4.51m-28.19-29.11-2.38-4.26q9.56-8.75 23.01-8.75 4.86 0 8.69 1.59 3.83 1.6 6.48 4.43 2.65 2.84 4.02 6.78 1.38 3.94 1.38 8.64v34.99h-6.05q-1.89 0-2.91-.57-1.03-.56-1.62-2.29l-1.19-4q-2.11 1.89-4.11 3.32-1.99 1.43-4.15 2.41-2.16.97-4.62 1.48t-5.43.51q-3.51 0-6.48-.94-2.97-.95-5.13-2.84t-3.35-4.69q-1.18-2.81-1.18-6.54 0-2.1.7-4.18t2.29-3.97q1.6-1.89 4.13-3.57 2.54-1.67 6.24-2.91t8.61-2.03q4.92-.78 11.24-.94v-3.24q0-5.56-2.38-8.24-2.38-2.67-6.86-2.67-3.24 0-5.37.76-2.13.75-3.75 1.7-1.62.94-2.95 1.7-1.32.75-2.94.75-1.4 0-2.38-.73-.97-.72-1.56-1.7m88.5 27v-24.84q-2.26-2.75-4.94-3.88-2.67-1.14-5.75-1.14-3.02 0-5.45 1.14-2.43 1.13-4.16 3.42-1.73 2.3-2.65 5.84-.91 3.53-.91 8.34 0 4.86.78 8.23.78 3.38 2.24 5.51 1.46 2.14 3.56 3.08 2.11.95 4.7.95 4.16 0 7.08-1.73 2.91-1.73 5.5-4.92m0-63.82h13.34v80.24h-8.15q-2.65 0-3.35-2.43l-1.13-5.35q-3.35 3.84-7.7 6.21-4.35 2.38-10.12 2.38-4.54 0-8.32-1.89t-6.51-5.48q-2.72-3.59-4.21-8.88-1.48-5.3-1.48-12.1 0-6.16 1.67-11.45t4.81-9.18q3.13-3.89 7.5-6.07 4.38-2.19 9.83-2.19 4.64 0 7.94 1.46 3.29 1.46 5.88 3.94zm37.05 46.17h25.16q0-2.6-.73-4.89-.73-2.3-2.18-4.02-1.46-1.73-3.7-2.73t-5.21-1q-5.78 0-9.1 3.29-3.32 3.3-4.24 9.35m34.02 8.04H441.9q.32 4.27 1.51 7.37 1.19 3.11 3.13 5.13 1.95 2.03 4.62 3.03t5.91 1 5.59-.76 4.11-1.67q1.75-.92 3.07-1.68 1.33-.75 2.57-.75 1.67 0 2.48 1.24l3.84 4.86q-2.22 2.59-4.97 4.34-2.76 1.76-5.75 2.81-3 1.06-6.1 1.49-3.11.43-6.03.43-5.77 0-10.74-1.92-4.97-1.91-8.64-5.67-3.67-3.75-5.78-9.29-2.11-5.53-2.11-12.82 0-5.67 1.84-10.67 1.84-4.99 5.27-8.69 3.42-3.7 8.37-5.86 4.94-2.16 11.15-2.16 5.23 0 9.66 1.68 4.43 1.67 7.62 4.88 3.18 3.22 4.99 7.89t1.81 10.66q0 3.03-.65 4.08t-2.48 1.05m24.68-26.94.91 4.37q1.68-1.67 3.54-3.11 1.86-1.43 3.94-2.42 2.08-1 4.46-1.57 2.37-.57 5.18-.57 4.54 0 8.05 1.54t5.86 4.32 3.56 6.64q1.22 3.86 1.22 8.51v35.26h-13.34v-35.26q0-5.08-2.32-7.86-2.33-2.78-7.08-2.78-3.45 0-6.48 1.57-3.02 1.56-5.72 4.26v40.07h-13.34v-55.4h8.15q2.6 0 3.41 2.43m47.41 45.63q0-1.68.62-3.19t1.7-2.59 2.59-1.73 3.24-.65 3.22.65q1.48.65 2.59 1.73 1.1 1.08 1.75 2.59t.65 3.19q0 1.72-.65 3.21-.65 1.48-1.75 2.56-1.11 1.08-2.59 1.7-1.49.63-3.22.63t-3.24-.63q-1.51-.62-2.59-1.7t-1.7-2.56q-.62-1.49-.62-3.21m25.65 0q0-1.68.62-3.19t1.7-2.59 2.59-1.73 3.24-.65 3.22.65q1.48.65 2.59 1.73 1.1 1.08 1.75 2.59t.65 3.19q0 1.72-.65 3.21-.65 1.48-1.75 2.56-1.11 1.08-2.59 1.7-1.49.63-3.22.63t-3.24-.63q-1.51-.62-2.59-1.7t-1.7-2.56q-.62-1.49-.62-3.21m25.65 0q0-1.68.62-3.19t1.7-2.59 2.59-1.73 3.24-.65 3.22.65q1.48.65 2.59 1.73 1.1 1.08 1.75 2.59t.65 3.19q0 1.72-.65 3.21-.65 1.48-1.75 2.56-1.11 1.08-2.59 1.7-1.49.63-3.22.63t-3.24-.63q-1.51-.62-2.59-1.7t-1.7-2.56q-.62-1.49-.62-3.21"/></svg>