<svg xmlns="http://www.w3.org/2000/svg" width="200" height="300" viewBox="0 0 200 300">
  <rect width="100%" height="100%" fill="#000000"/>
  <path fill="#ffffff" d="M44.85 136.865h4.22q1.16 0 1.95-.28t1.27-.75q.47-.46.68-1.08t.21-1.32q0-.73-.24-1.31-.23-.58-.72-.99-.5-.41-1.28-.63-.79-.22-1.89-.22h-4.2zm3.55-15.94h-3.55v6.48h3.32q2.14 0 3.23-.77 1.09-.78 1.09-2.47 0-1.75-.99-2.5-.99-.74-3.1-.74m-7.72-3.22h7.72q2.2 0 3.77.42 1.56.41 2.56 1.19 1 .77 1.47 1.87.46 1.11.46 2.48 0 .8-.23 1.52t-.72 1.34q-.49.63-1.24 1.14t-1.79.87q4.62 1.04 4.62 4.99 0 1.43-.54 2.64-.55 1.21-1.58 2.08-1.04.88-2.56 1.37-1.52.5-3.47.5h-8.47zm19.94 6.51h3.84v15.9h-3.84zm4.37-4.64q0 .5-.2.93-.21.44-.54.76-.33.33-.78.52t-.96.19q-.5 0-.94-.19t-.77-.52q-.32-.32-.52-.76-.19-.43-.19-.93 0-.51.19-.96.2-.45.52-.77.33-.33.77-.52.44-.2.94-.2.51 0 .96.2.45.19.78.52.33.32.54.77.2.45.2.96m3.42-2.49h3.83v23.03h-3.83zm17.64 18.32v-7.13q-.65-.79-1.42-1.12-.76-.32-1.65-.32-.86 0-1.56.32-.7.33-1.2.99-.49.66-.76 1.67-.26 1.02-.26 2.39 0 1.4.23 2.37.22.97.64 1.58t1.02.88q.61.27 1.35.27 1.19 0 2.03-.49.84-.5 1.58-1.41m0-18.32h3.83v23.03h-2.34q-.76 0-.96-.7l-.33-1.53q-.96 1.1-2.2 1.78-1.25.68-2.91.68-1.3 0-2.39-.54-1.08-.54-1.87-1.57-.78-1.03-1.2-2.55-.43-1.52-.43-3.48 0-1.76.48-3.28t1.38-2.64q.9-1.11 2.15-1.74 1.26-.63 2.82-.63 1.34 0 2.28.42.95.42 1.69 1.13zm34.94 7.13h2.91l-5.05 15.9h-3.07q-.53 0-.73-.68l-2.85-9.19q-.14-.47-.25-.93-.12-.45-.2-.92-.09.47-.21.94-.11.47-.25.94l-2.9 9.16q-.19.68-.82.68h-2.95l-5.04-15.9h3.06q.42 0 .71.2t.39.51l2.28 8.49q.17.7.3 1.37.13.66.22 1.33.17-.67.37-1.33.19-.67.41-1.37l2.63-8.52q.1-.31.37-.51t.66-.2h1.69q.4 0 .69.2.28.2.38.51l2.55 8.52q.2.7.38 1.38.18.67.35 1.34.2-1.32.57-2.72l2.35-8.49q.1-.31.38-.51t.67-.2m5.21 0h3.84v15.9h-3.84zm4.37-4.64q0 .5-.2.93-.2.44-.54.76-.33.33-.78.52t-.96.19q-.5 0-.94-.19t-.77-.52q-.32-.32-.52-.76-.19-.43-.19-.93 0-.51.19-.96.2-.45.52-.77.33-.33.77-.52.44-.2.94-.2.51 0 .96.2.45.19.78.52.34.32.54.77t.2.96m6.76 5.6.23 1.8q.74-1.43 1.77-2.24 1.02-.82 2.41-.82 1.1 0 1.77.48l-.25 2.87q-.07.28-.22.4-.15.11-.4.11-.23 0-.69-.08-.45-.07-.89-.07-.63 0-1.13.18-.5.19-.89.54-.4.35-.7.84-.3.5-.56 1.13v9.8h-3.83v-15.9h2.24q.59 0 .83.21.23.21.31.75m18.16 10.23v-7.13q-.65-.79-1.42-1.12-.76-.32-1.65-.32-.86 0-1.56.32-.7.33-1.2.99-.49.66-.76 1.67-.26 1.02-.26 2.39 0 1.4.23 2.37.22.97.64 1.58t1.02.88q.61.27 1.35.27 1.19 0 2.03-.49.84-.5 1.58-1.41m0-18.32h3.83v23.03h-2.34q-.76 0-.96-.7l-.33-1.53q-.96 1.1-2.2 1.78-1.25.68-2.91.68-1.3 0-2.39-.54-1.08-.54-1.87-1.57-.78-1.03-1.2-2.55-.43-1.52-.43-3.48 0-1.76.48-3.28t1.38-2.64q.9-1.11 2.15-1.74 1.26-.63 2.82-.63 1.34 0 2.28.42.95.42 1.69 1.13zm-102.08 51.89q.71 0 1.24-.19.53-.2.88-.54.34-.34.52-.82t.18-1.05q0-1.18-.7-1.87-.71-.69-2.12-.69t-2.12.69q-.7.69-.7 1.87 0 .56.18 1.04.17.48.52.82.35.35.89.55.53.19 1.23.19m4.32 9.05q0-.46-.28-.76-.27-.29-.75-.45-.49-.17-1.13-.24-.64-.08-1.36-.12t-1.49-.07-1.5-.12q-.63.35-1.03.83-.39.48-.39 1.12 0 .42.21.78.21.37.66.63.46.26 1.19.41t1.78.15q1.07 0 1.85-.17.77-.16 1.27-.44.51-.29.74-.69.23-.39.23-.86m-.76-16.07h4.58v1.43q0 .68-.82.83l-1.43.27q.32.82.32 1.79 0 1.18-.47 2.14-.47.95-1.31 1.62-.83.66-1.97 1.03-1.14.36-2.46.36-.47 0-.9-.05-.43-.04-.85-.12-.75.45-.75 1.01 0 .48.45.7.44.23 1.17.32.72.09 1.65.12.93.02 1.91.1.98.07 1.91.27.93.19 1.66.61.72.42 1.17 1.14.44.72.44 1.85 0 1.06-.52 2.05t-1.5 1.77q-.99.77-2.42 1.24-1.44.48-3.27.48-1.79 0-3.13-.35-1.33-.35-2.21-.93-.89-.58-1.32-1.34t-.43-1.58q0-1.12.67-1.87t1.85-1.2q-.63-.33-1.01-.87-.37-.54-.37-1.43 0-.35.13-.73.14-.38.39-.76.26-.37.64-.7.39-.33.92-.6-1.21-.65-1.9-1.73-.69-1.09-.69-2.55 0-1.17.47-2.13.48-.95 1.32-1.62.85-.68 2-1.04 1.16-.35 2.52-.35 1.02 0 1.92.21t1.64.61m10.02 5.58h7.22q0-.74-.21-1.4t-.63-1.16q-.42-.49-1.06-.78t-1.49-.29q-1.66 0-2.62.95-.95.94-1.21 2.68m9.76 2.31h-9.84q.09 1.22.43 2.11.34.9.9 1.48t1.33.87q.77.28 1.7.28t1.6-.21q.67-.22 1.18-.49.5-.26.88-.48.38-.21.74-.21.48 0 .71.35l1.1 1.4q-.63.74-1.43 1.25-.79.5-1.65.8t-1.75.43q-.89.12-1.73.12-1.65 0-3.08-.55t-2.48-1.63q-1.05-1.07-1.66-2.66-.6-1.59-.6-3.68 0-1.63.52-3.06.53-1.44 1.52-2.5.98-1.06 2.4-1.68t3.2-.62q1.5 0 2.77.48t2.19 1.4q.91.92 1.43 2.27.52 1.34.52 3.06 0 .86-.18 1.17-.19.3-.72.3m3.82-15.56h3.82v23.03h-3.82zm16.05 18.92v-2.68q-1.66.08-2.79.29t-1.81.53q-.68.33-.98.76-.29.44-.29.95 0 1.01.6 1.44.59.43 1.55.43 1.18 0 2.04-.42.86-.43 1.68-1.3m-8.09-8.35-.68-1.23q2.74-2.51 6.6-2.51 1.4 0 2.5.46t1.86 1.27 1.15 1.95q.4 1.13.4 2.48v10.04h-1.74q-.54 0-.83-.16-.3-.17-.47-.66l-.34-1.15q-.6.54-1.18.95-.57.42-1.19.69-.62.28-1.33.43-.7.15-1.55.15-1.01 0-1.86-.27-.86-.27-1.48-.82-.62-.54-.96-1.35-.34-.8-.34-1.87 0-.61.2-1.2.2-.6.66-1.14t1.19-1.02 1.79-.84 2.47-.58q1.41-.23 3.22-.27v-.93q0-1.6-.68-2.37-.68-.76-1.97-.76-.93 0-1.54.21-.61.22-1.08.49-.46.27-.84.49t-.85.22q-.4 0-.68-.21t-.45-.49m25.41 7.75v-7.13q-.65-.79-1.42-1.12-.77-.32-1.65-.32-.87 0-1.57.32-.7.33-1.19.99-.5.66-.76 1.67-.26 1.02-.26 2.4 0 1.39.22 2.36.23.97.64 1.58.42.61 1.03.88.6.27 1.35.27 1.19 0 2.03-.49.83-.5 1.58-1.41m0-18.32h3.83v23.03h-2.35q-.75 0-.96-.7l-.32-1.53q-.96 1.1-2.21 1.78t-2.91.68q-1.3 0-2.38-.54-1.09-.54-1.87-1.57t-1.21-2.55-.43-3.47q0-1.77.48-3.29t1.38-2.64q.9-1.11 2.16-1.74 1.25-.63 2.82-.63 1.33 0 2.28.42.94.42 1.69 1.13zm10.63 13.25h7.22q0-.74-.21-1.4t-.62-1.16q-.42-.49-1.07-.78-.64-.29-1.49-.29-1.66 0-2.61.95-.96.94-1.22 2.68m9.76 2.31h-9.84q.1 1.22.44 2.11.34.9.9 1.48.55.58 1.32.87.77.28 1.7.28t1.6-.21q.68-.22 1.18-.49.5-.26.88-.48.38-.21.74-.21.48 0 .71.35l1.1 1.4q-.63.74-1.42 1.25-.79.5-1.65.8t-1.75.43q-.9.12-1.73.12-1.66 0-3.09-.55-1.42-.55-2.48-1.63-1.05-1.07-1.66-2.66-.6-1.59-.6-3.68 0-1.63.53-3.06.52-1.44 1.51-2.5.98-1.06 2.4-1.68t3.2-.62q1.5 0 2.78.48 1.27.48 2.18 1.4.92.92 1.43 2.27.52 1.34.52 3.06 0 .86-.18 1.17-.19.3-.72.3m7.09-7.74.26 1.26q.48-.48 1.02-.89.53-.41 1.13-.7t1.28-.45 1.49-.16q1.3 0 2.3.44 1.01.44 1.69 1.24.67.8 1.02 1.91t.35 2.44v10.12h-3.83v-10.12q0-1.46-.67-2.26-.66-.79-2.03-.79-.99 0-1.86.44-.87.45-1.64 1.23v11.5h-3.83v-15.9h2.34q.75 0 .98.69"/>
</svg>