<svg xmlns="http://www.w3.org/2000/svg" width="400" height="600" viewBox="0 0 400 600">
  <rect width="100%" height="100%" fill="#000000"/>
  <path fill="#EBCB8B" d="M103.715 187.195v35.75h3.71q2.25 0 3.72-.62 1.48-.62 2.54-1.98l23.54-29.79q1.47-1.89 3.1-2.63 1.62-.73 4.1-.73h13.69l-28.74 35.45q-2.53 3.25-5.25 4.61 1.95.7 3.51 1.97 1.57 1.27 2.98 3.34l29.62 39.94h-13.98q-2.84 0-4.22-.8-1.39-.79-2.33-2.33l-24.13-31.5q-1.12-1.6-2.6-2.25-1.47-.64-4.25-.64h-5.01v37.52h-15.87v-85.31zm74.22 48.08h27.49q0-2.83-.79-5.34-.8-2.51-2.39-4.39-1.6-1.89-4.04-2.98-2.45-1.1-5.7-1.1-6.31 0-9.94 3.6t-4.63 10.21m37.17 8.79h-37.47q.36 4.66 1.66 8.06 1.29 3.39 3.42 5.6 2.12 2.21 5.04 3.3 2.92 1.1 6.46 1.1t6.11-.83 4.48-1.83q1.92-1 3.37-1.83 1.44-.82 2.8-.82 1.83 0 2.71 1.35l4.19 5.31q-2.42 2.83-5.43 4.75-3 1.92-6.28 3.07-3.27 1.15-6.67 1.62-3.39.48-6.57.48-6.32 0-11.75-2.1-5.42-2.09-9.44-6.19-4.01-4.11-6.31-10.15-2.3-6.05-2.3-14.02 0-6.19 2.01-11.65 2-5.46 5.75-9.5t9.14-6.4q5.4-2.36 12.19-2.36 5.72 0 10.56 1.83t8.32 5.34 5.46 8.61q1.97 5.11 1.97 11.66 0 3.3-.71 4.45-.7 1.15-2.71 1.15m14.81-32.09h14.63v60.53h-14.63zm16.64-17.65q0 1.89-.77 3.54-.77 1.66-2.04 2.9-1.26 1.23-2.98 1.97-1.71.74-3.65.74-1.89 0-3.57-.74t-2.92-1.97q-1.24-1.24-1.98-2.9-.74-1.65-.74-3.54 0-1.94.74-3.65t1.98-2.95 2.92-1.98 3.57-.74q1.94 0 3.65.74 1.72.74 2.98 1.98 1.27 1.24 2.04 2.95t.77 3.65m25.48 20.3 1.01 4.78q1.83-1.83 3.86-3.39 2.04-1.57 4.31-2.66t4.87-1.71q2.59-.62 5.66-.62 4.96 0 8.79 1.68 3.84 1.68 6.4 4.72 2.57 3.04 3.9 7.26 1.32 4.22 1.32 9.29v38.53h-14.57v-38.53q0-5.54-2.54-8.58-2.53-3.04-7.72-3.04-3.78 0-7.08 1.71-3.31 1.71-6.26 4.66v43.78h-14.57v-60.53h8.91q2.83 0 3.71 2.65m-150.09 187.09h16.05q4.42 0 7.43-1.06t4.81-2.83 2.59-4.13q.8-2.36.8-5.02 0-2.77-.88-4.98-.89-2.22-2.78-3.78-1.88-1.56-4.86-2.39t-7.17-.83h-15.99zm13.51-60.65h-13.51v24.66h12.62q8.15 0 12.31-2.95t4.16-9.38q0-6.67-3.78-9.5t-11.8-2.83m-29.38-12.27h29.38q8.38 0 14.34 1.59t9.76 4.54q3.81 2.95 5.58 7.14t1.77 9.44q0 3.01-.89 5.75-.88 2.75-2.74 5.14t-4.72 4.33q-2.86 1.95-6.82 3.31 17.59 3.95 17.59 19 0 5.42-2.07 10.03-2.06 4.6-6.02 7.93-3.95 3.33-9.73 5.22t-13.22 1.89h-32.21zm75.87 24.78h14.63v60.53h-14.63zm16.64-17.64q0 1.88-.77 3.54-.76 1.65-2.03 2.89t-2.98 1.97q-1.71.74-3.66.74-1.89 0-3.57-.74-1.68-.73-2.92-1.97t-1.98-2.89q-.73-1.66-.73-3.54 0-1.95.73-3.66.74-1.71 1.98-2.95t2.92-1.98 3.57-.74q1.95 0 3.66.74t2.98 1.98 2.03 2.95q.77 1.71.77 3.66m13.04-9.5h14.57v87.67h-14.57zm67.14 69.73v-27.14q-2.48-3-5.4-4.24t-6.28-1.24q-3.31 0-5.96 1.24-2.66 1.24-4.54 3.74-1.89 2.51-2.89 6.37-1.01 3.87-1.01 9.12 0 5.31.86 9 .85 3.69 2.45 6.02 1.59 2.33 3.89 3.36t5.13 1.03q4.55 0 7.73-1.89 3.19-1.88 6.02-5.37m0-69.73h14.57v87.67h-8.91q-2.89 0-3.65-2.65l-1.24-5.85q-3.66 4.19-8.41 6.79t-11.06 2.6q-4.96 0-9.09-2.07-4.13-2.06-7.11-5.99-2.98-3.92-4.6-9.7-1.62-5.79-1.62-13.22 0-6.73 1.83-12.51t5.25-10.03 8.2-6.64q4.78-2.38 10.74-2.38 5.07 0 8.67 1.59t6.43 4.31z"/>
</svg>