<svg xmlns="http://www.w3.org/2000/svg" width="768" height="432" viewBox="0 0 768 432"><rect width="100%" height="100%"/><path fill="#EBCB8B" d="M251.585 166.27v15.76h1.64q.99 0 1.64-.27.65-.28 1.12-.87l10.37-13.13q.65-.84 1.37-1.16.71-.33 1.8-.33h6.04l-12.67 15.63q-1.11 1.43-2.31 2.03.86.31 1.55.87t1.31 1.47l13.05 17.6h-6.16q-1.25 0-1.86-.35t-1.03-1.03l-10.63-13.88q-.49-.7-1.14-.99t-1.88-.29h-2.21v16.54h-6.99v-37.6zm32.71 21.19h12.12q0-1.24-.35-2.35-.35-1.1-1.06-1.94-.7-.83-1.78-1.31t-2.51-.48q-2.78 0-4.38 1.59-1.6 1.58-2.04 4.49m16.38 3.88h-16.51q.16 2.05.73 3.55.57 1.49 1.51 2.47.93.97 2.22 1.45t2.85.48 2.69-.36 1.98-.81q.84-.44 1.48-.8.63-.37 1.23-.37.81 0 1.2.6l1.84 2.34q-1.06 1.25-2.39 2.09-1.32.85-2.77 1.36-1.44.5-2.93.71-1.5.21-2.9.21-2.79 0-5.18-.92-2.39-.93-4.16-2.73-1.77-1.81-2.78-4.48-1.01-2.66-1.01-6.17 0-2.73.88-5.14.88-2.4 2.54-4.18 1.65-1.78 4.03-2.82 2.37-1.04 5.36-1.04 2.53 0 4.66.8 2.13.81 3.66 2.36 1.54 1.54 2.41 3.79t.87 5.14q0 1.45-.31 1.96t-1.2.51m6.53-14.15h6.45v26.68h-6.45zm7.33-7.77q0 .83-.34 1.56t-.89 1.27q-.56.55-1.32.87-.75.33-1.61.33-.83 0-1.57-.33-.74-.32-1.29-.87-.55-.54-.87-1.27-.33-.73-.33-1.56 0-.86.33-1.61.32-.76.87-1.3.55-.55 1.29-.87.74-.33 1.57-.33.86 0 1.61.33.76.32 1.32.87.55.54.89 1.3.34.75.34 1.61m11.23 8.94.44 2.11q.81-.81 1.71-1.5.89-.68 1.9-1.17 1-.48 2.14-.75t2.5-.27q2.18 0 3.87.74t2.82 2.08 1.72 3.2q.58 1.86.58 4.09v16.98h-6.42v-16.98q0-2.44-1.12-3.78t-3.4-1.34q-1.67 0-3.12.75-1.46.76-2.76 2.06v19.29h-6.42v-26.68h3.92q1.25 0 1.64 1.17m28.84 9.1h12.11q0-1.24-.35-2.35-.35-1.1-1.05-1.94-.7-.83-1.78-1.31t-2.51-.48q-2.78 0-4.38 1.59-1.6 1.58-2.04 4.49m16.38 3.88h-16.51q.15 2.05.72 3.55.58 1.49 1.51 2.47.94.97 2.23 1.45 1.28.48 2.84.48t2.69-.36 1.98-.81q.84-.44 1.48-.8.64-.37 1.24-.37.8 0 1.19.6l1.85 2.34q-1.07 1.25-2.39 2.09-1.33.85-2.77 1.36-1.45.5-2.94.71-1.5.21-2.9.21-2.78 0-5.17-.92-2.4-.93-4.16-2.73-1.77-1.81-2.79-4.48-1.01-2.66-1.01-6.17 0-2.73.88-5.14.89-2.4 2.54-4.18t4.03-2.82 5.37-1.04q2.52 0 4.65.8 2.13.81 3.67 2.36 1.53 1.54 2.4 3.79t.87 5.14q0 1.45-.31 1.96t-1.19.51m53.35-6.27q0 4.14-1.38 7.59-1.38 3.46-3.87 5.96-2.5 2.49-6.01 3.87t-7.8 1.38h-14.33v-37.6h14.33q4.29 0 7.8 1.39 3.51 1.4 6.01 3.88 2.49 2.48 3.87 5.94t1.38 7.59m-7.18 0q0-3.09-.82-5.55t-2.36-4.16q-1.55-1.7-3.75-2.61-2.19-.91-4.95-.91h-7.31v26.47h7.31q2.76 0 4.95-.91 2.2-.91 3.75-2.62 1.54-1.7 2.36-4.16.82-2.45.82-5.55m26.42 11.91v-4.5q-2.78.13-4.68.48t-3.04.9q-1.15.55-1.64 1.27-.49.73-.49 1.59 0 1.69 1 2.42t2.61.73q1.98 0 3.42-.72 1.44-.71 2.82-2.17m-13.57-14.01-1.15-2.06q4.61-4.21 11.08-4.21 2.34 0 4.19.77 1.84.76 3.12 2.13 1.27 1.36 1.93 3.26t.66 4.16v16.85h-2.91q-.91 0-1.4-.27-.49-.28-.78-1.11l-.57-1.92q-1.02.91-1.98 1.6t-2 1.15q-1.04.47-2.22.72-1.19.25-2.62.25-1.69 0-3.12-.46-1.43-.45-2.47-1.36t-1.61-2.27q-.57-1.35-.57-3.14 0-1.02.34-2.02t1.1-1.91q.77-.91 1.99-1.71 1.22-.81 3-1.41 1.79-.6 4.15-.97 2.37-.38 5.41-.46v-1.56q0-2.68-1.14-3.96-1.15-1.29-3.31-1.29-1.56 0-2.58.36-1.03.37-1.81.82-.78.46-1.42.82-.63.37-1.41.37-.68 0-1.15-.36-.47-.35-.75-.81m34.76 21.32q-3.48 0-5.34-1.97-1.86-1.96-1.86-5.42V182h-2.73q-.52 0-.89-.33-.36-.34-.36-1.02v-2.55l4.29-.7 1.35-7.28q.13-.52.5-.8.36-.29.93-.29h3.33v8.4h7.12V182h-7.12v14.46q0 1.25.61 1.95t1.68.7q.6 0 1-.14t.7-.3.53-.3q.24-.14.47-.14.29 0 .47.14t.39.43l1.92 3.12q-1.4 1.17-3.22 1.77t-3.77.6m15.52-16.83h12.12q0-1.24-.35-2.35-.35-1.1-1.06-1.94-.7-.83-1.78-1.31t-2.51-.48q-2.78 0-4.38 1.59-1.6 1.58-2.04 4.49m16.38 3.88h-16.51q.16 2.05.73 3.55.57 1.49 1.51 2.47.93.97 2.22 1.45t2.85.48 2.69-.36 1.97-.81q.85-.44 1.49-.8.63-.37 1.23-.37.81 0 1.2.6l1.84 2.34q-1.06 1.25-2.39 2.09-1.32.85-2.77 1.36-1.44.5-2.94.71-1.49.21-2.89.21-2.79 0-5.18-.92-2.39-.93-4.16-2.73-1.77-1.81-2.78-4.48-1.02-2.66-1.02-6.17 0-2.73.89-5.14.88-2.4 2.53-4.18 1.66-1.78 4.03-2.82 2.38-1.04 5.37-1.04 2.53 0 4.66.8 2.13.81 3.66 2.36 1.54 1.54 2.41 3.79t.87 5.14q0 1.45-.31 1.96t-1.2.51m11.88-12.98.45 2.11q.8-.81 1.7-1.5.9-.68 1.9-1.17 1-.48 2.14-.75 1.15-.27 2.5-.27 2.18 0 3.87.74t2.82 2.08 1.72 3.2q.58 1.86.58 4.09v16.98h-6.42v-16.98q0-2.44-1.12-3.78-1.11-1.34-3.4-1.34-1.67 0-3.12.75-1.46.76-2.76 2.06v19.29h-6.42v-26.68h3.93q1.24 0 1.63 1.17m-336.2 61.23v2.66q0 .67-.24 1.32-.23.65-.62 1.07l-12.66 16.69h13.13v4.94h-20.59v-2.68q0-.44.2-1.05.21-.61.63-1.16l12.79-16.87h-12.87v-4.92zm21.29 0h6.42v26.68h-3.92q-1.28 0-1.61-1.17l-.45-2.13q-1.63 1.66-3.61 2.69t-4.65 1.03q-2.19 0-3.87-.74-1.67-.75-2.82-2.1-1.14-1.35-1.73-3.21-.58-1.86-.58-4.09v-16.96h6.42v16.96q0 2.44 1.13 3.78t3.4 1.34q1.66 0 3.12-.74 1.45-.74 2.75-2.04zm19.19 26.68h-6.42v-26.68h3.92q1.25 0 1.64 1.17l.42 1.98q.7-.78 1.47-1.43.76-.65 1.63-1.12.88-.47 1.88-.74t2.19-.27q2.53 0 4.15 1.36 1.63 1.37 2.43 3.63.63-1.33 1.56-2.27.94-.95 2.06-1.55 1.11-.6 2.37-.89 1.27-.28 2.54-.28 2.21 0 3.93.67 1.71.68 2.88 1.98t1.78 3.17.61 4.29v16.98h-6.42v-16.98q0-2.55-1.12-3.83-1.11-1.29-3.27-1.29-.99 0-1.84.34-.84.34-1.48.97-.63.64-1 1.6-.36.96-.36 2.21v16.98h-6.45v-16.98q0-2.68-1.08-3.9t-3.16-1.22q-1.4 0-2.61.69t-2.25 1.88zm74.49-32.03h-16.69v11.13h14.09v5.59h-14.09v15.31h-7.02v-37.6h23.71zm4.91 5.35h6.45v26.68h-6.45zm7.34-7.77q0 .83-.34 1.56t-.9 1.27q-.56.55-1.31.88-.76.32-1.61.32-.84 0-1.58-.32-.74-.33-1.28-.88-.55-.54-.88-1.27-.32-.73-.32-1.56 0-.86.32-1.61.33-.76.88-1.3.54-.55 1.28-.87.74-.33 1.58-.33.85 0 1.61.33.75.32 1.31.87.56.54.9 1.3.34.75.34 1.61m5.74-4.19h6.42v38.64h-6.42zm19.27 38.64h-6.42v-26.68h3.92q1.25 0 1.64 1.17l.42 1.98q.7-.78 1.46-1.43.77-.65 1.64-1.12t1.87-.74q1.01-.27 2.2-.27 2.52 0 4.15 1.36 1.62 1.37 2.43 3.63.62-1.33 1.56-2.27.94-.95 2.05-1.55 1.12-.6 2.38-.89 1.26-.28 2.54-.28 2.21 0 3.92.67 1.72.68 2.89 1.98t1.78 3.17.61 4.29v16.98h-6.42v-16.98q0-2.55-1.12-3.83-1.12-1.29-3.27-1.29-.99 0-1.84.34-.84.34-1.48.97-.64.64-1 1.6t-.36 2.21v16.98h-6.45v-16.98q0-2.68-1.08-3.9t-3.16-1.22q-1.4 0-2.61.69t-2.25 1.88zm68.74-26.68h5.07l-10.58 26.68h-5.82l-10.59-26.68h5.31q.73 0 1.21.34t.63.86l5.15 14.25q.42 1.25.73 2.44.31 1.2.55 2.39.26-1.19.57-2.39.31-1.19.75-2.44l5.25-14.25q.19-.52.65-.86.47-.34 1.12-.34m20.28-.41q2.97 0 5.4.96t4.16 2.73 2.66 4.32q.94 2.54.94 5.69 0 3.17-.94 5.72-.93 2.55-2.66 4.34-1.73 1.8-4.16 2.76t-5.4.96q-2.99 0-5.43-.96-2.45-.96-4.18-2.76-1.72-1.79-2.67-4.34t-.95-5.72q0-3.15.95-5.69.95-2.55 2.67-4.32 1.73-1.77 4.18-2.73 2.44-.96 5.43-.96m0 22.54q3.33 0 4.93-2.24 1.6-2.23 1.6-6.55 0-4.31-1.6-6.58-1.6-2.26-4.93-2.26-3.38 0-5 2.28-1.63 2.27-1.63 6.56t1.63 6.54q1.62 2.25 5 2.25m23.74-20.51.39 3.01q1.25-2.39 2.96-3.76 1.72-1.36 4.06-1.36 1.85 0 2.96.81l-.41 4.81q-.13.46-.38.66-.25.19-.66.19-.39 0-1.16-.13t-1.49-.13q-1.07 0-1.9.32-.83.31-1.5.89-.66.59-1.17 1.42-.5.83-.95 1.9v16.43h-6.42v-26.68h3.77q.99 0 1.38.36.39.35.52 1.26m20.15-13.58v14.82q1.56-1.45 3.43-2.36t4.4-.91q2.18 0 3.87.74t2.82 2.08 1.72 3.2q.58 1.86.58 4.09v16.98h-6.42v-16.98q0-2.44-1.12-3.78t-3.4-1.34q-1.67 0-3.12.75-1.46.76-2.76 2.06v19.29h-6.42v-38.64zm37 31.75v-4.5q-2.78.13-4.68.48t-3.04.9q-1.15.55-1.64 1.27-.5.73-.5 1.59 0 1.69 1 2.42 1.01.73 2.62.73 1.97 0 3.42-.72 1.44-.71 2.82-2.17m-13.57-14.01-1.15-2.06q4.6-4.21 11.08-4.21 2.34 0 4.18.77 1.85.76 3.12 2.13 1.28 1.36 1.94 3.26t.66 4.16v16.85h-2.91q-.91 0-1.4-.27-.5-.28-.78-1.11l-.57-1.92q-1.02.91-1.98 1.6t-2 1.15q-1.04.47-2.23.72-1.18.25-2.61.25-1.69 0-3.12-.46-1.43-.45-2.47-1.36t-1.61-2.27q-.57-1.35-.57-3.14 0-1.02.34-2.02.33-1 1.1-1.91t1.99-1.71q1.22-.81 3-1.41t4.15-.97q2.37-.38 5.41-.46v-1.56q0-2.68-1.15-3.96-1.14-1.29-3.3-1.29-1.56 0-2.59.36-1.02.37-1.8.82-.78.46-1.42.82-.64.37-1.42.37-.67 0-1.14-.35-.47-.36-.75-.82m31.43-4.61.44 2.11q.81-.81 1.7-1.49.9-.69 1.9-1.17 1-.49 2.15-.76 1.14-.27 2.49-.27 2.19 0 3.88.74t2.82 2.08 1.71 3.2q.59 1.86.59 4.09v16.98h-6.42v-16.98q0-2.44-1.12-3.78t-3.41-1.34q-1.66 0-3.12.75-1.45.76-2.75 2.06v19.29h-6.42v-26.68h3.92q1.25 0 1.64 1.17m40.51 17.61v-11.96q-1.09-1.33-2.38-1.88-1.29-.54-2.77-.54-1.46 0-2.63.54-1.17.55-2 1.66-.83 1.1-1.27 2.8-.44 1.71-.44 4.02 0 2.34.37 3.97.38 1.62 1.08 2.65.7 1.02 1.72 1.48 1.01.45 2.26.45 2 0 3.41-.83 1.4-.83 2.65-2.36m0-30.74h6.42v38.64h-3.93q-1.27 0-1.61-1.17l-.54-2.57q-1.62 1.84-3.71 2.99-2.09 1.14-4.87 1.14-2.19 0-4.01-.91t-3.13-2.64-2.03-4.28q-.71-2.54-.71-5.82 0-2.96.8-5.51.81-2.55 2.32-4.42 1.5-1.87 3.61-2.93 2.11-1.05 4.73-1.05 2.24 0 3.82.7 1.59.7 2.84 1.9zm17.83 22.23h12.12q0-1.24-.35-2.35-.35-1.1-1.05-1.94-.71-.83-1.79-1.31-1.07-.48-2.5-.48-2.79 0-4.39 1.59-1.59 1.58-2.04 4.49m16.38 3.88h-16.51q.16 2.05.73 3.55.57 1.49 1.51 2.47.94.97 2.22 1.45 1.29.48 2.85.48t2.69-.36 1.98-.81q.84-.44 1.48-.8.64-.37 1.23-.37.81 0 1.2.6l1.85 2.34q-1.07 1.25-2.4 2.1-1.32.84-2.77 1.35-1.44.5-2.93.71-1.5.21-2.9.21-2.78 0-5.18-.92-2.39-.93-4.16-2.73-1.76-1.81-2.78-4.47-1.01-2.67-1.01-6.18 0-2.73.88-5.13.89-2.41 2.54-4.19t4.03-2.82 5.37-1.04q2.52 0 4.65.8 2.13.81 3.67 2.36 1.53 1.54 2.4 3.79t.87 5.14q0 1.45-.31 1.96t-1.2.51m11.89-12.98.44 2.11q.8-.81 1.7-1.49.9-.69 1.9-1.17 1-.49 2.14-.76 1.15-.27 2.5-.27 2.18 0 3.87.74t2.82 2.08q1.14 1.34 1.72 3.2.59 1.86.59 4.09v16.98h-6.43v-16.98q0-2.44-1.11-3.78-1.12-1.34-3.41-1.34-1.66 0-3.12.75-1.46.76-2.76 2.06v19.29h-6.42v-26.68h3.93q1.25 0 1.64 1.17"/></svg>