<svg xmlns="http://www.w3.org/2000/svg" xml:space="preserve" viewBox="0 0 59 68">
  <title>Bayerischer Rundfunk-Logo</title>
  <path fill="#fff" d="M50.5 15c-4.1 0-7.5 3.4-7.5 7.6s3.3 7.6 7.5 7.6 7.5-3.4 7.5-7.6-3.4-7.6-7.5-7.6m0 13.9c-3.4 0-6.1-2.8-6.1-6.2s2.7-6.2 6.1-6.2 6.1 2.8 6.1 6.2-2.7 6.2-6.1 6.2"></path>
  <path fill="#fff" d="M52.9 24.9v-6.2l-6.1 2.2v1.6l2-.8v4.7z"></path>
  <path fill="#fff" d="M42.4 52.9v.1h-6.3L23.9 35.5v-.1h3.5c4.3 0 6.7-2.8 6.7-6.2s-2.5-6-6.7-6h-3.1l-3.8-4.5v-.1h7.1c7.4 0 11.9 3.9 11.9 10.3 0 5.1-2.9 8.5-7.6 9.4zM15.3 34.4c3.7-.9 5.6-3.6 5.6-7.2 0-5.2-4-8.6-11.5-8.6H.3V53h10.1C18.5 53 23 48.9 23 42.9c0-4.6-2.6-7.6-7.7-8.5m-5.1 14H5.4V23.2h3.8c4.3 0 6.3 2 6.3 5 0 3.1-2.3 5.3-6.7 5.6v2.5c5.8.2 8.8 2 8.8 6 0 3.9-2.7 6.1-7.4 6.1"></path>
</svg>