<svg xmlns="http://www.w3.org/2000/svg" xml:space="preserve" viewBox="0 0 125 68">
  <title>Das Erste-Logo</title>
  <path fill="#fff" d="M17.9 16C8.4 16.3 1 24.3 1 34.2c.2 10.1 8.2 18 17.9 17.8 9.4-.2 16.9-8 17.1-17.8C36 24.1 28.2 16 18.5 16zm7.5 7.5v18L13.8 46V32.3l-5.7 2v-4.5zm85.8 3.1-2.8.8v3.5h-1.9v2.2h1.9v5.7c0 2.6.7 3.5 3.2 3.5.7 0 1.6-.1 2.2-.3v-2.3c-.4.1-.9.2-1.3.2-.9 0-1.3-.4-1.3-1.8v-4.8h2.6v-2.4h-2.6zm-62.2.1c-1.8 0-3.5.1-4.7.1v15.1c1.2 0 2.5.1 4 .1 4.7 0 8-2.7 8-7.9.1-5.3-2.8-7.4-7.3-7.4m33 .1v15.1h7.9v-2.4h-5.1v-4.1h4.8v-2.3h-4.8v-3.8h5.1v-2.4zm-34.2 2.4h.9c3.4 0 4.6 1.9 4.6 5.1 0 3.6-2 5.1-4.7 5.1-.6 0-1.1 0-1.5-.1V29.2c.3.1.4 0 .7 0m14.3 1.3c-1.4 0-2.8.3-3.8.7l.3 2.4c.9-.6 2.1-.9 3.2-.9 1.6 0 2 .6 2 1.7v.6c-3.6 0-6.1 1.5-6.1 4.1 0 1.8 1.1 2.9 3.1 2.9 1.6 0 2.9-.9 3.4-2.1-.2.6-.2 1.3-.2 1.8h2.6c0-.9-.1-1.9-.1-2.9v-4.6c0-2.1-1-3.7-4.4-3.7m11 0c-3 0-4.6 1.6-4.6 3.6 0 3.8 4.3 2.7 4.3 4.6 0 .8-.7 1.2-1.8 1.2-.8 0-1.7-.2-2.3-.4l-.1 2.3c.7.1 1.5.2 2.2.2 2.9 0 4.7-1.5 4.7-3.7 0-3.6-4.4-2.8-4.4-4.6 0-.7.6-1.2 1.6-1.2.7 0 1.4.1 2 .3l.1-2.2c-.4.1-1.1-.1-1.7-.1m24.9 0c-1.9-.2-2.9 1.1-3.4 2.5.1-.8.2-1.6.2-2.2h-2.6v11.1H95v-4.5c0-3.1 1-4.5 3-4zm5.3 0c-3 0-4.6 1.6-4.6 3.6 0 3.8 4.4 2.7 4.4 4.6 0 .8-.7 1.2-1.8 1.2-.8 0-1.7-.2-2.3-.4v2.3c.7.1 1.5.2 2.2.2 2.9 0 4.8-1.5 4.8-3.7 0-3.6-4.4-2.8-4.4-4.6 0-.7.6-1.2 1.6-1.2.7 0 1.4.1 2 .3l.1-2.2c-.7.1-1.3-.1-2-.1m16.6 0c-3.2 0-5 2.5-5 5.9 0 4 1.9 5.7 5.3 5.7 1.3 0 2.7-.3 3.8-.8l-.3-2.2c-.9.5-2 .7-3.2.7-2 0-3-1-3-3.1h6.6c.1-.5.1-.9.1-1.3.2-2.7-1.2-4.9-4.3-4.9m-.1 2.1c1.1 0 1.9.9 1.9 2.2h-3.9c.1-1.3.8-2.2 2-2.2m-56 4.4v.3c0 1.4-.9 2.7-2.2 2.7-.8 0-1.3-.5-1.3-1.2-.1-.9.6-1.8 3.5-1.8"></path>
</svg>