<svg xmlns="http://www.w3.org/2000/svg" xml:space="preserve" viewBox="0 0 124 69">
  <title>funk-Logo</title>
  <path fill="#fff" d="M122.4 47.7H98.1c-.1 0-.3 0-.4-.1s-.3-.1-.4-.2-.2-.2-.2-.4c-.1-.2-.1-.3-.1-.5v-24c0-.3.1-.6.3-.8s.5-.3.8-.3h24.3c.1 0 .3 0 .4.1l.3.3c.1.1.1.2.1.4 0 .1-.1.2-.1.4L115 33.8c-.1.2-.2.4-.2.7 0 .2.1.5.2.7l8.1 11.4c.1.1.1.2.1.4 0 .1 0 .3-.1.4s-.1.2-.3.3c-.2-.1-.3 0-.4 0M45.9 48.2c-3.5 0-6.8-1.4-9.3-3.8s-3.8-5.8-3.8-9.3V22.6c0-.3.1-.6.3-.8s.5-.3.8-.3h23.9c.3 0 .6.1.8.3s.3.5.3.8v12.5c0 1.7-.3 3.4-1 5s-1.6 3-2.8 4.2-2.7 2.2-4.2 2.8c-1.6.8-3.3 1.1-5 1.1M78 20.9c3.5 0 6.8 1.4 9.3 3.8s3.8 5.8 3.8 9.3v12.5c0 .3-.1.6-.3.8s-.5.3-.8.3H66c-.1 0-.3 0-.4-.1s-.3-.1-.4-.2-.2-.2-.2-.4c-.1-.1-.1-.3-.1-.4V34c0-1.7.3-3.4 1-5s1.6-3 2.8-4.2 2.7-2.2 4.2-2.8c1.7-.7 3.4-1.1 5.1-1.1M13.4 47.7H1.9c-.3 0-.6-.1-.8-.3s-.3-.5-.3-.8v-24c0-.3.1-.6.3-.8s.5-.3.8-.3h23.8c.2 0 .4.1.6.2s.3.3.4.4c.1.2.1.4.1.6s-.1.4-.2.6l-5.9 8.2c0 .1-.1.1-.1.2v.2c0 .1.1.1.1.1h2.6c.2 0 .3 0 .5.1.1.1.3.2.3.4.1.2.1.3.1.5s-.1.3-.2.5l-9.9 13.7c-.1.1-.2.3-.4.3 0 .1-.2.2-.3.2"></path>
</svg>