<svg xmlns="http://www.w3.org/2000/svg" xml:space="preserve" viewBox="0 0 57 69">
  <title>Hessischer Rundfunk-Logo</title>
  <path fill="#fff" d="M49.1 29.9c-3.3 0-6.1-2.7-6.1-6.1s2.7-6.1 6.1-6.1c3.3 0 6.1 2.7 6.1 6.1s-2.7 6.1-6.1 6.1m0-13.5c-4.1 0-7.4 3.3-7.4 7.4s3.3 7.4 7.4 7.4 7.4-3.3 7.4-7.4-3.3-7.4-7.4-7.4M14.4 53.4V40.1c0-1.7 0-2.5-.5-3-.4-.4-1.2-.6-2.6-.6-1 0-2.2.1-3.7.4v16.5H.5V20.5l7.1-.5v10.8c1.5-.3 3.4-.5 5-.5 3.3 0 5.4 1 6.8 2.4 1.9 1.9 2 4.1 2 6.7v14zm17.3 0h-7.1V39.8c0-2.4.1-4.6 2-6.5 2.1-2.1 5.4-2.9 12.8-3v6c-5.4.1-6.6.5-7.2 1.1-.4.4-.5.9-.5 2.1z"></path>
  <path fill="#fff" d="M51.5 26v-6.1l-6.1 2.2v1.5l2-.7v4.6z" class="st0"></path>
</svg>