<svg xmlns="http://www.w3.org/2000/svg" viewBox="0 0 84 28" color="#2be8bc" alt="KIKA Logo">
  <g fill="#2BE8BC"> 
    <path stroke="#2BE8BC" stroke-width=".5" d="M10.893 0v5.726l6.05-5.202A2.954 2.954 0 0 1 18.63 0h3.762c.838.01 1.632.377 2.183 1.007A3.1 3.1 0 0 1 26.86 0h14.417a2.967 2.967 0 0 1 2.969 2.948v2.77L50.3.518a2.949 2.949 0 0 1 1.69-.517h3.762a2.973 2.973 0 0 1 2.921 2.945v2.363L65.288 0h14.306a2.97 2.97 0 0 1 2.965 2.959v22.988a2.974 2.974 0 0 1-2.969 2.96h-7.923v-8.46h-3.54v8.46h-7.921a2.977 2.977 0 0 1-2.257-1.044 2.976 2.976 0 0 1-2.196 1.043h-3.77a2.958 2.958 0 0 1-1.687-.531l-.016-.012-6.038-5.19v2.77a2.974 2.974 0 0 1-2.97 2.963h-7.92v-2.413c-.856.689-2.28 1.83-2.44 1.945a3.04 3.04 0 0 1-1.269.467h-2.78a2.984 2.984 0 0 1-2.261-1.047 2.986 2.986 0 0 1-2.202 1.047h-3.77a3.01 3.01 0 0 1-1.722-.55l-.013-.01-6.003-5.178V28.9H2.969A2.972 2.972 0 0 1 0 25.943V2.954A2.97 2.97 0 0 1 2.97.001h7.923Zm11.485 1.402h-3.74c-.31 0-.613.093-.869.267l-8.304 7.15V1.402H2.968a1.543 1.543 0 0 0-1.542 1.535v22.985a1.543 1.543 0 0 0 1.542 1.534h6.497v-7.415l8.297 7.148c.256.174.558.267.868.266h3.756a1.546 1.546 0 0 0 1.51-1.532V21.86l-9.251-7.432 9.251-7.431V2.933a1.546 1.546 0 0 0-1.518-1.53Zm57.22 0H65.794l-7.119 5.714V25.92a1.544 1.544 0 0 0 1.542 1.536h6.494v-8.458H73.1v8.458h6.496a1.544 1.544 0 0 0 1.542-1.538V2.933a1.54 1.54 0 0 0-1.542-1.53Zm-47.781 6.86h-6.498V25.9c0 .855.692 1.55 1.55 1.556h2.66c.204-.025.398-.096.57-.207.135-.095 1.385-1.095 2.717-2.168l.365-.294.182-.147V9.795a1.546 1.546 0 0 0-1.546-1.532Zm9.468-6.86H34.79v26.054h6.495a1.546 1.546 0 0 0 1.541-1.542V20.04l8.302 7.14c.254.178.557.274.867.275h3.747a1.549 1.549 0 0 0 1.508-1.538v-4.063l-9.248-7.432L57.25 6.99V2.926a1.539 1.539 0 0 0-1.51-1.524h-3.745a1.531 1.531 0 0 0-.868.26l-8.3 7.147V2.93a1.538 1.538 0 0 0-1.542-1.527Zm-17.388 7.44-6.974 5.603 6.974 5.604V8.84Zm33.354-.008-6.974 5.605 6.974 5.604V8.833Zm15.846-1.99.004 6.18h-6.389v-6.18h6.385Zm-1.43 1.439h-3.531v3.335h3.531V8.283Zm-38.304-6.88h-6.5a1.515 1.515 0 0 0-1.539 1.252V6.84h8.04V1.401Z"></path>
    <path fill-opacity=".248" d="M22.378 1.402c.838.017 1.51.695 1.518 1.531v4.065l-9.251 7.43 9.251 7.433v4.063a1.546 1.546 0 0 1-1.51 1.532H18.63c-.31 0-.612-.092-.868-.266l-8.297-7.148v7.415H2.968a1.543 1.543 0 0 1-1.542-1.534V2.938a1.543 1.543 0 0 1 1.542-1.535h6.497v7.415l8.304-7.15c.256-.173.559-.266.868-.266h3.741Zm57.22 0a1.54 1.54 0 0 1 1.54 1.531v22.985a1.544 1.544 0 0 1-1.54 1.538H73.1v-8.458h-6.389v8.458h-6.494a1.544 1.544 0 0 1-1.542-1.536V7.116l7.119-5.714h13.802Zm-47.781 6.86c.85.001 1.54.688 1.542 1.537l.004 14.84c-.971.785-1.973 1.59-2.61 2.096l-.22.175c-.235.187-.39.308-.434.339a1.363 1.363 0 0 1-.57.207h-2.66a1.558 1.558 0 0 1-1.55-1.556V8.263h6.498Zm9.468-6.86a1.538 1.538 0 0 1 1.541 1.526V8.81l8.3-7.147c.257-.172.56-.262.869-.26h3.745a1.539 1.539 0 0 1 1.51 1.524V6.99l-9.248 7.432 9.248 7.432v4.063a1.549 1.549 0 0 1-1.508 1.538h-3.747a1.533 1.533 0 0 1-.867-.274l-8.302-7.14v5.872a1.546 1.546 0 0 1-1.541 1.542H34.79V1.402h6.495Zm31.812 5.442h-6.385v6.18h6.389l-.004-6.18ZM33.363 1.402V6.84l-8.039.001V2.655a1.515 1.515 0 0 1 1.539-1.253h6.5Z"></path>
  </g>
</svg>