<svg xmlns="http://www.w3.org/2000/svg" xml:space="preserve" viewBox="0 0 100 68">
  <title>Mitteldeutscher Rundfunk-Logo</title>
  <path fill="#fff" d="M22.4 36.7c.2-.2.5-.6.9-.9.5-.4.9-.8 1.6-1.2s1.4-.8 2.4-1c.9-.3 1.9-.4 3-.4 1.2 0 2.4.3 3.3.9s1.7 1.3 2.3 2.4c.3.6.5 1.1.7 1.7s.2 1.3.2 2.2v4.2h-4.4v-4c0-.5 0-.8-.1-1 0-.3-.1-.5-.2-.8-.2-.6-.6-.9-1-1.2s-1-.4-1.7-.4c-.5 0-.9.1-1.4.2-.5.2-.9.4-1.3.7q-.75.45-1.2.9c-.4.3-.8.7-1.1.9-.4.4-.8.7-1.1 1.1l-1.2 1.2c-.4.4-.8.8-1.1 1.2-.4.4-.7.8-.9 1-.1.1-.2.2-.4.1-.1 0-.2-.2-.2-.3v-3.9q0-1.65-.9-2.4c-.6-.5-1.2-.8-2.2-.8-.6 0-1.1.1-1.6.3q-.75.3-1.5.9l-1.5 1.2c-.5.5-1 .9-1.6 1.5-.5.4-.9.9-1.2 1.2-.4.4-.9.9-1.2 1.3-.7.5-1.1 1-1.5 1.5-.5.5-.9 1-1.5 1.6-.1.1-.2.2-.4.1-.1 0-.2-.1-.2-.3v-8.1c0-.5-.1-.8-.4-1-.2-.3-.6-.4-1.1-.4H.3v-3.2h6.8c.6 0 1 .2 1.3.5s.5.8.5 1.3v1.9c0-.1.3-.3.8-.8.5-.4 1-.9 1.8-1.4s1.6-.9 2.6-1.3c.9-.4 1.9-.6 2.9-.6.9 0 1.7.1 2.4.4s1.2.6 1.6.9c.4.4.8.8 1 1.1s.3.7.4 1m28.2-3.6c.6 0 1 0 1.7.1.6.1 1.2.3 1.8.5.7.2 1.2.6 1.9.9.7.4 1.2.9 1.9 1.5V27c0-.5-.1-.8-.4-1-.2-.3-.6-.4-1.1-.4h-2.7v-3.3h6.8c.6 0 1 .2 1.3.5s.5.8.5 1.3v20c0 .2-.1.3-.2.4-.1 0-.2 0-.4-.2-.3-.3-.7-.6-1.1-.9-.5-.4-.9-.8-1.4-1.2s-1-.9-1.5-1.2c-.5-.4-.9-.8-1.4-1.1-.3-.2-.6-.5-1-.8s-.9-.6-1.3-.9c-.5-.3-1-.6-1.6-.8-.7-.3-1.4-.4-2-.4-.9 0-1.7.2-2.5.5-.8.4-1.4.8-1.9 1.3-.6.6-.9 1.2-1.2 2s-.5 1.5-.5 2.3c0 .7.1 1.2.2 1.8s.3 1 .5 1.6c.2.5.4.9.7 1.3.2.4.5.8.7 1h-4.8c-.2-.3-.4-.7-.6-1-.2-.4-.4-.8-.5-1.2-.1-.5-.3-.9-.4-1.5s-.1-1.2-.1-1.9c0-.9.2-2.1.7-3.2.4-1.1 1-2.3 1.9-3.3s2-1.9 3.3-2.6c1.4-.6 3-1 4.7-1m23.3 4.1c.2-.2.5-.4.8-.7s.6-.5.9-.8.7-.5.9-.7c.3-.2.7-.4.9-.6.5-.2.9-.5 1.2-.6.4-.2.8-.3 1.2-.4s.9-.2 1.4-.3 1.1-.1 1.9-.1v4c-1.1 0-2.5.4-3.8 1.1-1.3.8-2.8 1.9-4.5 3.5l-1.2 1.2c-.5.5-.9.9-1.3 1.4-.5.5-.9.9-1.2 1.3-.4.4-.7.8-.9 1-.2.5-.4.6-.4.5-.1 0-.2-.1-.2-.3v-8.1c0-.5-.1-.8-.4-1-.2-.3-.6-.4-1.1-.4h-2.9V34H72c.6 0 1 .2 1.3.5s.5.8.5 1.3v1.5h.1z"></path>
  <path fill="#fff" d="M92.5 18.8c-3.9 0-7.1 3.1-7.1 7.1 0 3.9 3.1 7.1 7.1 7.1 3.9 0 7.1-3.1 7.1-7.1 0-3.8-3.3-7.1-7.1-7.1m0 12.9c-3.2 0-5.8-2.6-5.8-5.8s2.6-5.8 5.8-5.8 5.8 2.6 5.8 5.8c-.1 3.3-2.6 5.8-5.8 5.8"></path>
  <path fill="#fff" d="M94.7 28v-5.8L89 24.3v1.4l1.9-.7v4.4z"></path>
</svg>