<svg xmlns="http://www.w3.org/2000/svg" xml:space="preserve" viewBox="0 0 67 69">
  <title>Norddeutscher Rundfunk-Logo</title>
  <path fill="#fff" d="M12.4 29.1h4.5v21.1h-5L5.1 37.9v12.3H.6V29.1h4.6l7.1 13.2V29.1zm4.5-19.8h2.5v19.9h-2.5zm0 41h2.5v9h-2.5zm9.9-21.2c2.6 0 4.5.6 5.8 2 1.4 1.3 2 3.3 2 5.9v5.4c0 2.6-.6 4.6-2 5.9s-3.3 1.9-5.9 1.9h-7.5V29.1zm-2.7 4v13.1h2.2c.6 0 1-.1 1.5-.2.5-.2.9-.3 1.2-.6s.6-.7.8-1.2.2-1.1.2-1.8V37c0-1.4-.3-2.3-1-3-.6-.6-1.6-.9-2.8-.9zm17.4 17.1h-4.7V29.1h7.3c1.4 0 2.6.2 3.5.4q1.5.3 2.4 1.2c.6.6 1 1.2 1.4 2 .2.8.4 1.7.4 2.7 0 1.4-.2 2.6-.8 3.5-.6 1-1.4 1.8-2.7 2.2l4.5 8.9h-5L44 42h-2.5zm0-17.3v5.4h3c1 0 1.7-.2 2.2-.7.6-.5.8-1.2.8-2.1 0-1-.2-1.6-.7-2s-1.2-.6-2.3-.6z"></path>
  <path fill="#fff" d="M60.3 26.6c-3.3 0-6 2.6-6 6s2.6 6 6 6 6-2.6 6-6c0-3.3-2.6-6-6-6m0 10.8c-2.7 0-4.9-2.2-4.9-4.9s2.2-4.9 4.9-4.9 4.9 2.2 4.9 4.9c.1 2.8-2.2 4.9-4.9 4.9" class="st1"></path>
  <path fill="#fff" d="M62.2 34.3v-4.9l-4.9 1.8v1.3l1.6-.6v3.7z"></path>
</svg>