<svg xmlns="http://www.w3.org/2000/svg" xml:space="preserve" viewBox="0 0 97 69">
  <title>Westdeutscher Rundfunk-Logo</title>
  <path fill="#fff" d="M73.5 38.3c.6.5 1.1 1 1.6 1.6.6.7 1.1 1.3 1.5 2.2l3.8 6.4h-7.3l-4.2-7c-.4-.6-.8-1-1.3-1.3-.6-.3-1.3-.5-2.4-.5h-.5v8.8h-6.9v-8.9h-.1q-.45 1.95-1.5 3.6c-.7 1.1-1.6 2-2.8 2.9-1.2.8-2.5 1.4-4 1.8-1.5.5-3.4.7-5.4.7h-8.5V28.1h-.1l-5.5 20.5h-7.4l-3.7-15.9h-.1l-3.8 15.9H7.4L.9 23.8h7.4l2.3 10.1c.2.7.3 1.4.5 2.3s.4 1.7.5 2.5c.2-.9.4-1.7.6-2.6s.4-1.7.6-2.5l1.9-9.8H23l1.9 9.8c.2.9.4 1.8.5 2.6.2.9.3 1.6.4 2.5.1-.8.3-1.5.5-2.4s.4-1.6.5-2.5L29 23.7h15.1c2 0 3.8.2 5.3.7 1.5.4 2.9 1.1 4 1.7 1.2.8 2 1.6 2.8 2.7.7 1.1 1.3 2.2 1.5 3.5h.1v-8.7h10.7c3.2 0 5.6.7 7.3 1.9 1.7 1.3 2.6 3.2 2.6 5.7 0 1.1-.1 1.9-.4 2.7s-.7 1.4-1.2 1.9c-.5.6-1 1-1.5 1.3-.6.4-1.2.6-1.7.8zm-29 4.6c2.1 0 3.8-.6 4.7-1.7 1-1.2 1.4-2.9 1.4-5.1 0-2.3-.5-3.9-1.5-5-1.1-1.1-2.7-1.5-4.9-1.5h-1.8V43h2.1zm23.9-8.3c1 0 1.7-.3 2.3-.8.5-.5.8-1.2.8-2 0-1.7-1.2-2.7-3.4-2.7h-3.4v5.5z"></path>
  <path fill="#fff" d="M88.9 20.5c-3.9 0-7.2 3.2-7.2 7.2 0 3.9 3.2 7.2 7.2 7.2s7.2-3.2 7.2-7.2-3.1-7.2-7.2-7.2m0 13c-3.3 0-5.9-2.6-5.9-5.9s2.6-5.9 5.9-5.9 5.9 2.6 5.9 5.9c.1 3.3-2.6 5.9-5.9 5.9"></path>
  <path fill="#fff" d="M91.2 29.8v-5.9L85.4 26v1.5l1.9-.8v4.4z"></path>
</svg>