<?xml version="1.0" encoding="UTF-8" standalone="no"?>
<svg version="1.1" x="30px" y="30px" viewBox="0 0 292 292" style="enable-background:new 0 0 292 292;" xml:space="preserve" xmlns="http://www.w3.org/2000/svg" xmlns:svg="http://www.w3.org/2000/svg">
  <style type="text/css" id="style1">
  .st0{display:none;}
  .st1{display:inline;fill:#E6E6E6;}
  .st2{fill:#FFFFFF;}
  .st3{fill:#2E2925;}
  .st4{fill:#2E2A25;}
  </style>
  <g id="g8" style="display:inline">
    <g id="g4" style="display:inline">
      <polygon class="st2" points="133.7,240.5 133.7,268.9 292,235.3 292,61.5 158.3,89.9 158.3,23.1 0,56.7 0,268.9 " id="polygon4" />
    </g>
    <g id="g7" style="display:inline">
      <g id="g5">
        <path class="st3" d="m 103.8,158.9 v 53.5 l -34,7.2 v -44.5 c 0,-3.6 -1.6,-4.9 -4.9,-4.2 l -3,0.6 v 49.8 l -34,7.2 v -49.7 l -6,1.3 V 155 l 26.8,-5.7 c 5.8,-1.2 8.5,1.5 9.3,7.8 l 0.5,-0.1 c 7.9,-10.8 20.2,-15.5 26.2,-16.8 10.2,-2.3 19.1,1.7 19.1,18.7 z m 80.5,5.6 -42.4,9 c 1.1,7.2 3.8,9.1 8.8,8 3.7,-0.8 7.8,-3.2 11.2,-7.1 l 19.4,-4.1 v 16.5 c -9,9 -20.7,15 -34,17.8 -23.5,5 -38.1,-6.7 -38.3,-31 -0.2,-23.2 13.1,-41.6 37.8,-46.8 25.1,-5.2 40.1,10.8 37.5,37.7 z m -42.5,-3.9 11.6,-2.5 c -0.5,-6.1 -2.5,-8.8 -5.8,-8.1 -3.1,0.7 -5.2,3.8 -5.8,10.6 z m 125.4,-20.5 c 0.1,23.5 -13.5,42 -38.9,47.3 -24.2,5.1 -39.3,-6.5 -39.2,-30.7 0.2,-23.2 13.8,-41.7 39.1,-47.1 22.8,-4.9 39,7.7 39,30.5 z m -39.1,-7.2 c -4,0.8 -6.1,5.9 -6.1,17.6 -0.1,11.7 2.2,16.3 6.1,15.4 3.8,-0.8 5.8,-6.3 5.9,-18.1 0.1,-11.5 -2,-15.7 -5.9,-14.9 z" id="path5" />
      </g>
      <g id="g6">
        <path class="st4" d="m 22.1,134.6 v -8.8 l 17.1,-26 -9.6,2.1 -0.2,4.4 -7.4,1.5 v -13 l 29.8,-6.3 v 8.7 l -17,26.1 10.2,-2.2 0.3,-5.1 8.1,-1.7 V 128 Z m 71.6,-26.3 c 0,1.9 0.6,2.4 2.3,2.1 l 1.6,-0.3 v 8.6 l -7.7,1.6 c -3.8,0.8 -5.5,-0.4 -5.8,-3.8 l -0.4,-0.1 c -1.6,3.8 -4.8,6.8 -10.5,8 -7.4,1.5 -15,-2.1 -15,-16.8 0,-14.1 4.9,-22.1 15.1,-24.3 3.8,-0.8 7.2,0.4 8.8,2.8 L 82.4,86 V 72.5 l -3.6,0.8 V 64.8 L 93.6,61.6 Z M 82.5,102.7 C 82.5,95 80.7,91.3 77,91.4 c -4.3,0.3 -6.9,5.4 -6.9,13.4 0,6.8 1.9,10.2 5.8,10.1 4.2,-0.1 6.6,-4.5 6.6,-12.2 z m 24,-25.8 v -6.5 c 0,-9 3.5,-13.1 13.4,-15.2 5.1,-1.1 9.8,-0.9 11.1,-0.8 v 10.7 l -7.6,1.6 V 63 c -0.9,0.1 -1.6,0 -2.8,0.3 -2.4,0.5 -3.5,1.9 -3.5,4.6 v 6.8 l 9.5,-2 v 8.6 l -8.9,1.9 v 22.6 l 5.7,-1.2 v 8.6 l -20.7,4.4 V 109 l 3.8,-0.8 V 85.6 l -4,0.8 v -8.6 z" id="path6" />
      </g>
      <polygon class="st4" points="192.9,212.1 192.9,225.3 264.2,210.2 264.2,196.9 " id="polygon6" />
    </g>
  </g>
</svg>