<?xml version="1.0" encoding="UTF-8" standalone="no"?>
<svg version="1.1" width="480px" height="200px" viewBox="-0.3 16.5 48 15" fill="none" xml:space="preserve" xmlns="http://www.w3.org/2000/svg" xmlns:svg="http://www.w3.org/2000/svg">
  <path d="M26.7104 21.5209H29.5669V20.1893H26.1276C24.275 20.1893 23.5166 21.2076 23.5166 22.8049V22.961C23.2067 21.0804 22.0705 20.1893 19.9911 20.1893H16.5034C15.102 17.4194 12.1976 15.5193 8.83971 15.5193C4.11745 15.5193 0.282349 19.2886 0.282349 23.9387C0.282349 28.5928 4.11745 32.3608 8.83971 32.3608C12.1761 32.3608 15.0596 30.4834 16.4757 27.749H20.0304C20.8815 27.749 21.6461 27.699 22.428 27.087C22.9901 26.6437 23.3413 26.0281 23.5078 25.2143V27.7395H25.1379L25.1394 24.7685H28.9888V23.4472H25.1379L25.158 22.9125C25.158 22.0457 25.4236 21.5209 26.7104 21.5209ZM19.9581 26.418H18.1595V21.5209H19.9581C21.3716 21.5209 21.8794 22.1171 21.8794 23.9683C21.8794 25.8209 21.3715 26.418 19.9581 26.418Z" fill="#FA7D19"></path>
  <path d="M12.6314 23.319H13.6929C14.5361 23.319 15.0377 23.1529 15.0377 22.45C15.0377 21.7243 14.5361 21.5208 13.671 21.5208H10.0668V20.1895H14.2619C16.3881 20.1895 16.6894 21.6532 16.6894 22.4685C16.6894 23.3406 16.3301 24.7202 14.2573 24.7202H13.228C11.9428 24.7202 11.6646 25.1778 11.6646 26.0419V26.4468H16.4765V27.7397H10.02V25.8632C10.0201 24.2682 10.7812 23.319 12.6314 23.319Z" fill="white"></path>
  <path d="M31.2542 22.9561V21.7656H32.0764V20.0602H34.0791V21.7656H35.1035V22.9561H34.0791V25.5644C34.0791 25.9629 34.132 26.2264 34.2368 26.3562C34.3419 26.4847 34.5393 26.5505 34.8276 26.5505C34.8911 26.5505 34.9405 26.549 34.9763 26.5477C35.0127 26.5458 35.0475 26.5424 35.0806 26.5383V27.7956C34.871 27.8353 34.6661 27.8674 34.4648 27.8898C34.2637 27.9118 34.0687 27.9226 33.8821 27.9226C33.1882 27.9226 32.7135 27.7558 32.4584 27.4225C32.204 27.0877 32.0764 26.3768 32.0764 25.287V22.9562L31.2542 22.9561Z" fill="white"></path>
  <path d="M35.8531 19.628H37.8451V21.2177H35.8531V19.628ZM35.8531 21.7657H37.8451V27.7841H35.8531V21.7657Z" fill="white"></path>
  <path d="M40.5758 27.7841L38.3079 21.7656H40.4297L41.6001 25.9574L42.7875 21.7656H44.8979L42.6298 27.7841H40.5758Z" fill="white"></path>
  <path d="M45.3497 19.628H47.3412V21.2177H45.3497V19.628ZM45.3497 21.7657H47.3412V27.7841H45.3497V21.7657Z" fill="white"></path>
</svg>